<svg xmlns="http://www.w3.org/2000/svg" width="151.781" height="65.643" viewBox="0 0 151.781 65.643">
  <path id="Path_7" data-name="Path 7" d="M455.914,150.959c.124-.364.173-.036.187-.518.125.318.008.619.044.927C456.069,151.229,455.99,151.3,455.914,150.959Zm-1.122.471c.129-.389-.117-.8.049-1.183-.093-.095-.187.026-.28.25.2.431.2.113,0,.526C454.637,151.28,454.715,151.148,454.792,151.431Zm-2.334-.1c.108.237.218-.36.327-.123-.024-.492-.149-.563-.328-.668C452.373,150.8,452.58,151.074,452.457,151.333Zm-42.392,57.431c-.115.071-.24,0-.343.344C409.872,209.478,410.092,209.306,410.065,208.764Zm57.728-56.079c-.2-.11-.405.163-.6-.2C467.187,152.98,467.777,153.085,467.793,152.685Zm-48.768,56.406c-.309.042-.624-.014-.935.029C418.244,209.606,418.755,209.442,419.024,209.092Zm57.839-55.426c.08-.363-.225-.737-.322-.189C476.638,154.03,476.761,153.447,476.864,153.665ZM414.6,208.643l-.055.028C414.572,208.7,414.595,208.7,414.6,208.643Zm-4.839-53.164c-.133-.171-.257-.095-.386-.181-.036.185.029.2.053.123a.755.755,0,0,1,.116.5C409.624,156.044,409.687,155.669,409.758,155.479Zm135.2,18.029c-.24-.529-.465.555-.773.085-.3,2.214-1.521.519-1.992,1.408-.489-1.143-1.342-.53-1.7-.16.116.166.535-.349.429.513-.406.2-.692-.323-1.029.363-.3-.36-.878-.608-1.039.116a2.023,2.023,0,0,1,.936.4c-.185.738-.465.4-.624,1.433-.278-.133-.531.022-.729.814-.1-.124-.064-.323-.135-.467-.12.961-.389.236-.548.712a1.082,1.082,0,0,0,.212.827c-.187.614-.467.172-.691.377.224.2.5-.237.691.375a1.086,1.086,0,0,0-.212.828c.16.475.429-.25.548.71.07-.143.035-.341.135-.465.2.791.451.947.729.814.16,1.031.44.695.624,1.433a2.02,2.02,0,0,1-.936.4c.161.726.743.478,1.039.118.337.684.623.163,1.029.363.107.862-.313.347-.429.512.356.372,1.209.985,1.7-.16.471.89,1.7-.8,1.992,1.411.308-.471.533.611.773.084-.034-.448-.208-.212-.221-.817a4.241,4.241,0,0,1,1.842,3.233,3.281,3.281,0,0,0-.272,1.655c-.342.792-.979.915-.952,2.6-.245-.626-.558-.167-.669-.96.049-.166.132.053.206.149.048-.541-.049-.324-.2-.563-.075.56-.185.751-.316.729a.946.946,0,0,0,.131.87.2.2,0,0,1-.08.07,6.035,6.035,0,0,1,.308.758c.18-.688.285-.16.414,0,.369-1.09.779-.282.97-.758.166.622-.293.895-.373.813.143.661.387-.287.527.428.088-.281-.1-.65.1-.9.059.273.143.163.2.462-.372-.043,0,2.376-.268.578-.4-.016-.775-.378-1.207.155-.14-.625-.214-.442-.324.029-.028-.181.081-.324.032-.519-.154-.323-.086.481-.265.581a9.565,9.565,0,0,0-.268-1.67c.017-.017.034,0,.05,0a.546.546,0,0,1-.083-.278c-.207,1.071-.927.558-1.415.281-.412,1.428-1.087.016-1.692-.654l-.068.31c.327,1.279.846,1.1,1.183,1.893-.059.416-.18.15-.228.671a1.472,1.472,0,0,0-1.037-.625.378.378,0,0,1,.153.13c-.039.69-.223-.172-.376.161a3.024,3.024,0,0,1-.066.378c.243-.191.276.333.511.675-.055.733-.261.434-.308-.223-.229.288.153.851-.135.757.115.447.42.67.158,1.237-.131-.04-.16-.361-.009-.664-.053-.149-.127.095-.194.211a5.715,5.715,0,0,1-.174-.978c-.272-.057-.554.1-.8-.484-.4,1.23-.67-.029-1.021.25-.039,1.053.484.516.469,1.451-.443-.515-.78.158-1.223-.693-.058.158-.123.164-.192.107-.12.364-.223.529-.368-.149h0a2.733,2.733,0,0,0-.087.906c.107.057.216.155.322.645.175-.321.452.206.609.33a1.738,1.738,0,0,0-.038.712c.163-.065.515.772.371-.095.278.164.079.394.187.876.087-.445.236.307.332.045.012-.721-.1-.34-.266-.591-.024-.493.1-.188.2-.715.115.4.208.371.279-.071.03.574.389.306.24,1-.074-.048-.2-.975-.425-.023.356.307.174.619.347,1.234.161-.822.434.457.612-.033-.083.524-.209.217-.291.741-.206-.613-.367-.4-.533-.257.048.164.062.518-.026.4-.111-.574-.56.081-.772.6-.145-.228-.043-.515-.227-.735-.172.447-.535.622-.611.026.071-.754.243.461.33.045-.05-.428.3-.957.121-1.354-.176.048-.041.327-.2.713-.163-.423-.277.1-.426-.026-.221-.208.089-.549-.132-.758.02.671-.264.992-.426.9a4.609,4.609,0,0,1-.082,1.211c-.284-.344-.519.295-.811-.2.024-.38.293-.118.161-.568-.255.409-.294-.414-.558.136-.055-.431-.508-.817-.678-.366-.211-.391.025-.889-.247-1.262a1.644,1.644,0,0,1-.013.245.687.687,0,0,1,.1.2c-.053.2-.131.129-.205.084a.722.722,0,0,0-.2.608c-.113-.431-.186.04-.29-.2a.892.892,0,0,0,.031-.623c-.013.011-.028.028-.041.039-.06.177-.132.132-.188.364a.658.658,0,0,1-.082-.236,1.384,1.384,0,0,1-.48.006,1.734,1.734,0,0,0,.429.4c-.3.527-.678-.448-.983.093.4.243.827.938,1.205.647a.759.759,0,0,1-.077-.642c.192.461.1.5.316.719,0,.307-.1.64-.1.946-.452-.836-.952-1.208-1.183-.124.079-.4-.209-.657-.239-.079-.207-.3.064-.716-.046-1.042-.112.292-.254-.059-.372.081.08.25.411.2.221.744-.073.47-.219-.67-.292-.2-.072.757-.035.633-.284.988.2.264.1.592.087.906-.207-.564-.223.505-.3.726-.187-.4.123-.907-.058-1.307-.091.2-.191.285-.292.309-.033.067-.074.047-.117,0a1.072,1.072,0,0,1-.192-.045,1,1,0,0,1,.068-.155c-.143-.285-.293-.637-.363-.006-.165-.4-.331-.794-.493-1.192a1.706,1.706,0,0,0-.124.887,1.167,1.167,0,0,1-.137-.279c-.107.309-.257.064-.377.208a1.635,1.635,0,0,0-.137-.735c-.067.047-.116.143-.115.436-.078-.078-.17-.512-.244-.543-.01.043-.008.09-.021.132-.006-.039-.013-.064-.02-.095a.175.175,0,0,0-.017.04c.044,1.416.841.5.915,1.659-.24-.116-.488-.412-.727-.509a6.505,6.505,0,0,1-.03,1.881.486.486,0,0,1,.272.278c.131-.623.478-.374.225-1.011.2-.1.2.264.194.7.181.132.294-1.2.52-.544-.111.428-.18-.039-.279.2a.67.67,0,0,1,.025.4c.447.053.929-.6,1.323.56a3.209,3.209,0,0,1,.241-1.265,2,2,0,0,1-.19,1.144c.185,1.123.506-.524.7.428.3-.417-.064-.986.115-1.425a7.135,7.135,0,0,1,.064,1.465c.147.512.2-.462.28-.2a1.6,1.6,0,0,0-.1-.685c.166-.146.39.295.281.727.357-.8.309-.009.586-.918.265.589.3.4.625.154.021.355-.16.664.036,1.064-.086.2-.169.4-.255.6-.163-.022-.043-.7-.268-.064a.67.67,0,0,1,.026-.524c-.278-.028-1.121-.529-1.031.811-.1.285-.158-.447-.24-.583a1.431,1.431,0,0,0,.075,1.2c-.1.141-.55-.04-.33-.6-.183-.251-.4.284-.56-.527-.1.288.155.651.091.946-.181.49-.586-.63-.52.541-.129.281-.138-.439-.064-.541-.161-.067-.326-.06-.506.281-.033-.226.029-.433-.014-.662-.093-.25-.211.051-.305-.2a3.728,3.728,0,0,0,.014.661c-.359-.625-.747-.653-1.142-.513-.121.349.136.076.153.564-.149.341-.256-.27-.417.305-.25-.794-.344,1.062-.593.27.093-.107.183-.1.276-.2-.086-.715-.242.112-.33-.6-.126.2-.042.433.015.664-.076.034-.141-.2-.227.085-.033-.912-.822-.551-1.192-.374a.856.856,0,0,0-.02.18,2.049,2.049,0,0,0-1.014-.212c.075.242.367-.085.408.617.469-.484.958-.385,1.476.381.155-.6.113-.271.239.085.294-.385.813-.547,1,.2.186-.87.7.226.782.634-.045-.082-.3.095-.176.3.132.172.257.144.375-.074a.635.635,0,0,1-.021-.524c.214.217.4-.138.6-.257-.468.977-.418,1.957-.8,1.22-.23.541-.494.234-.728.676-.186-.312-.115-.78-.313-.729.028-.375.294-.105.165-.561-.435.143-.994.18-1.134,1.149-.207-.357.019-.794-.187-1.152-.194.963-.6.067-.75.14.125,0,.243-.248.355-.594.167.594.549.44.509-.229-.3-.49-.562.082-.861-.363-.043.141-.084.279-.126.419.06.473.3.1.208.49-.107-.288-.172.44-.262.578-.4-.949-.4.871-.78.54.036-.506.318-.406.208-.7-.281.059-.569-.081-.844.154-.181-.233-.074-.513-.216-.754a4.6,4.6,0,0,1-.4.73c-.1-.467.211-1,.181-1.481-.12-.333-.219.014-.331-.074.1.667-.225.547-.312.45.088.712-.183.464-.16.819a.318.318,0,0,1,.009.261c-.236-.31.077-.715-.131-1.031-.3-.293-.416,1.327-.627.9a1.186,1.186,0,0,0,.066-.8c-.4-.564-.573,1.089-.66,1.3a2.827,2.827,0,0,0-.079-.912c.087-.327.353-.487.39-.811a.768.768,0,0,1-.322-.167c-.169.243-.221.9-.484,1.178-.107-.2-.066-.43-.162-.633-.084.278-.17.554-.254.83.091.234.39-.292.341.343-.19-.023-.387-.279-.563.09a7.729,7.729,0,0,0,1.663.388c-.426,1.019-1.436-.813-1.534.645-.128.4-.275.233-.419.2a1.083,1.083,0,0,0,.079-.54c-.3-.017-.614-.507-.911-.519a1.072,1.072,0,0,0,.075-.538c-.129.383-.29-.29-.416.2.116.175.22.012.341.343-.3.626-.453.478-.658,1.548-.264-.468-.12.471-.571-.181-.251,1.027-.967.163-1.4.194a1.1,1.1,0,0,0,.079-.537c-.046.079-.095.056-.145-.115.05.6-.141,1.095-.359.578-.067-.167.028-.358-.016-.527-.122.363,0,.484-.173.55-.112-.206-.042-.433-.064-.651-.094.231-.039.445-.123.675-.306.135-.795-.644-.936.116-.225-.321.152-.718-.029-1.048-.453,1.5-.927.733-1.267.022.055.124.1-.076-.008-.264.217-.008.492-.94.332-1.617-.2.267-.126.684-.36.568a1.866,1.866,0,0,1-.065,1.062c-.175-.375.061-.8-.078-1.178-.154-.1-.168-.537-.38-.219-.277,1.637-.978,1.106-1.406,1.867a1.418,1.418,0,0,0,.117-.935c-.265.081-.356-.242-.4.7-.328-.8-.084.788-.367.3a3.181,3.181,0,0,0,.111-1.2c-.064-.113-.126-.045-.186.017a1.669,1.669,0,0,1-.119.935c-.111-.792-.312-.285-.275.292-.875-.794-1.732.661-2.271-1.107-.144.619-.307.208-.451.825-.265-.825-.429-.369-.555.309-.347-.2-.456-.7-.606.177-.265-.285.173-.628.029-.921-.192-.4-.29.336-.383-.5-.115.569-.241.473-.368.29a1.061,1.061,0,0,0,.083-.532c-.894.617-2.053,0-2.787.968.239.226.711-.242.8.349-.064-.109-.191-.09-.138.14.169.172.366.394.277-.281.319.047.214.961.07,1.444-.347-.628-.88-1.49-.939-.209-.135-.622-.245.3-.378-.242.035-.482.293-.174.178-.536-.147-.423-.281-.1-.418.154a.763.763,0,0,1,.053.392,1.589,1.589,0,0,1,.074-1.318c.154.161.161.512.372-.022-.263-.423.079-.881-.113-1.307-.107.233-.216.1-.324.147-.109,1.552-.629,2.424-1.037,2.551.208-.416-.127-.63-.193-.515-.073.806-.513.1-.748.029a1.415,1.415,0,0,0,.131-.662c-.239-.374-.3,1.044-.456.806.059-.867-.244-.05-.328-.119.093-.31-.186-.606-.245-.912-.074.282-.153.149-.228.406.123-.1.3.014.193.518-.21-.369-.465-.385-.416.406-.211-.256.111-.527-.1-.781-.2.871-.166.064-.326.138a1.872,1.872,0,0,0-.035.924c.026-.656.381.048.559-.017-.157.267.005.523-.083.789-.142-.053-.284-.236-.42.144,0,.5.164.519.29.782-.423-.071-.474-.5-.67-1.3-.243.454-.452-.58-.664-.771,0-.394.148-.791.128-1.188-.216.113-.438-.2-.654.017-.057.349-.027,1.016-.226.662-.005-.453.249-.33.038-.921-.087.715-.1.231-.278.267a8.668,8.668,0,0,0-.037.923c.054-.084.331.04.236.389-.124-.037-.252-.467-.373.009.048.478.3.147.192.519-.087-.169-.133.2-.137.4a1.843,1.843,0,0,1-.2-1.048c-.125.115-.252-.264-.373.006-.147-.385-.179-1.441-.384-1.047s.134.788-.129,1.185c-.22-.392.164-.789-.057-1.183-.358-.129-.717-.319-1.069.4.035-.845-.307-.042-.42-.13-.162-.233-.123-1.118-.333-.92-.151.509-.347,1.309-.456,1.577a1.941,1.941,0,0,0-.284-.788c-.064-.654.315,0,.229-.659-.219-.022-.683-.172-.743.524.129.248.329-.228.329.4-.417.583-1.037-.49-1.3.251-.508-.461-.8-1.459-1.073-.409-.1-.35-.1-.85-.282-.533a2.359,2.359,0,0,0,.142.662c-.091.26-.185.521-.277.782-.06-1.276-.612.371-.654-.54.144.324.225-.175.185-.523-.153.256-.31-.591-.465-.014.093.69-.162.251-.326.651-.207-.27.115-.524-.094-.792-.046.071-.093.253-.14.13.018-.609.509-.33.371-1.306-.245.681-.7-.791-.79.633-.1-.223-.05-.442-.14-.664-.145.546-.414,0-.418.642.108.388.216-.4.325.146-.388.6-.6.229-.79,1.154-.113-.4.062-.785-.046-1.185.223.743.481-.25.372-.775-.218.447-.435.2-.653.5a2.173,2.173,0,0,0,.187.8c-.172.7-.342.337-.513.637-.189-.313-.07-.617-.139-.927-.346,1.008-.981.012-1.305.994-.045-.4.068-.789.049-1.185-.306-.245-.1.868-.373.506a.652.652,0,0,0,0-.526,1.547,1.547,0,0,0-.281.775.568.568,0,0,1,.418.154,1.168,1.168,0,0,0,.092.794c-.312.239-.622-.05-.933-.051-.28.425-.1.871-.1,1.313-.292-.448-.078-.44-.277-1.072.406-.991.6-.453.936-.737-.229-.309-.167-.5-.371-.809a5.624,5.624,0,0,0,.143-1.437c.1.315.429-.1.373-.245-.173-.678-.566.141-.467.766-.126-.608-.492-.14-.465.234.106.547.219-.239.326.154a.861.861,0,0,0,.09.529c-.7.806-2.041-1.259-2.052,1,.04-.267.259-.194.185.2-.069.036-.363-.085-.281.242.233.115.468-.338.7-.873.2.983.4-.112.6.431-.112.533-.217-.082-.328.112a4.444,4.444,0,0,0,.042.924c-.237.312-.186.884-.421.369,0-.56.407-.569.192-1.3-.237.778-.508,1.13-.427,1.679.066.4.366-.161.277.544-.078-.115-.154-.105-.234.118-.12-.952-.574-.284-.459-1.611-.164.751-.864,1.52-1.122.709a1.491,1.491,0,0,1-.005.529c-.06-.154-.122-.284-.186-.017a2.211,2.211,0,0,1,.008-1.05c.247.242.5.071.745.054-.069-.313.149-.6-.041-.923-.158.825-.672-.023-.985.847.121.321.234.175.136.668-.29.243-.882-.515-.889.585-.068-.6-.145-1.289-.419-.43-.1-.226-.046-.439-.133-.67.1-.581.183.343.282-.237-.323-.726.144-.226.052-.656-.122-.4-.249.022-.373-.028.162.766-.19.676-.058,1.441-.078-.515-.468-1.169-.558-.313-.075-.282-.154-.155-.228-.414-.091-1.042.567-.512.338-1.419.629.651,1.07-.147,1.631-.256-.205-.9-.478.433-.553-.571-.2.219-.22.391-.24.9-.338-.465-.154-.022-.18-.8-.171.278-.292-.079-.239.637-.313-.124.062-1.065.014-1.579-.219.4-.43-.425-.649-.057.041.265.044.53.086.8.112-.524.217-.18.328-.364.12.243.108,1.129-.055.916.112-.11.118-.825.005-.527a2.015,2.015,0,0,0-.192.774c-.157-.048-.55-.544-.558-.053.151.487.311-.177.463.309-.135.64-.33-.029-.332.625-.1-1.152-.919-1.058-.886.05-.2-.369-.109-1.03-.319-.69-.057.216-.005.439-.053.653-.145-.42-.166.116-.237.371-.153-.166-.3-.473-.459-.572a4.611,4.611,0,0,0,.815-2.157c-.2-.029-.15.428-.194.772-.163-.65-.342.036-.508-.448a1.428,1.428,0,0,0-.129-.933c-.2.8-.389-.113-.463-.048a1.31,1.31,0,0,0-.147.644c.067.121.367-.33.275.29-.068-.091-.367.378-.284.5.085-.29.4-.115.32.433-.245.851-.467,0-.616.853a1.717,1.717,0,0,1-.039-.664c-.206.087-.589-.313-.657.454-.355-.819-.467.22-.8.3.01,0-.225-.712-.234.1-.167-.279-.048-.529-.174-.808-.1.817-.514.07-.752.433a1.2,1.2,0,0,0-.082-.8c-.241-.363-.091.5-.239.366a1.248,1.248,0,0,0-.035-.665c-.1.659-.181-.389-.279-.034-.125.247.074.537-.012.788-.306-.313-.63.547-.934.141a1.2,1.2,0,0,0,.057-.65c-.248.563-.414.611-.416-.189-.333.372-.753.853-.927-.127-.165.527-.311.009-.47.194-.044.445-.166.3-.249.889-.085-.515-.089-.637-.269-.569.01-.554.243-.323.382-.47a4.183,4.183,0,0,1,.121-1.563c-.191-.183-.385-.257-.472.461-.277-.223-.542-.906-.84.137-.174-.183.056-.926-.126-.679a2.87,2.87,0,0,0-.054.388c-.378-.927-1.13.1-1.663-.527a5.383,5.383,0,0,1,.348,1.112c.107-.574.179.354.284-.217-.044-.171-.14-.04-.087-.279.465-.273.636.507,1.063.3-.127.245-.339.234-.108.772-.192.375-.3.237-.365-.321-.129.242-.627.868-.9.518a.78.78,0,0,0,.06-.651c-.117-.341-.253.24-.377.2.043.14.087.279.129.419a2.343,2.343,0,0,0-1.352.169c-.163-.292-.044-.536-.169-.819-.066.164-.131.329-.2.492a1.7,1.7,0,0,1-.031-.664c-.1.242-.181-.223-.284.212a1.112,1.112,0,0,1,.08.543c-.135-.226-.284.166-.414-.2a.776.776,0,0,0,.062-.648c-.1.35-.186.012-.29.471a1.294,1.294,0,0,1,.03.667c-.237-1.129-.529.028-.786-.273-.029-.268.185-.5.112-.771-.571-.836-1.47.617-2.159-1.064-.075.2.07.451-.064.645-.241-.051.048-.309-.12-.684-.243-.045.028.323-.157.628-.124-.288,0-.527-.165-.823-.211.371-.4-.147-.612.273a1.26,1.26,0,0,1,.028.667c-.058-.143-.125.039-.192.223-.314-.859-.549.158-.782-.292.036-.8.315-.211.477-.43a3.153,3.153,0,0,1-.035-.4,4.217,4.217,0,0,1-1.017-.211c.19.426.384.659.589.521-.111.2-.041.43-.065.643-.32-.851-.221.071-.463-.095-.064-.38-.259-.937-.44-.887.05.631.121.653.154,1.089-.125-.448-.279-.02-.4-.741-.037.493-.348.657-.371-.082-.378.726-.723.295-1.076.161-.216.185-.2,1.078-.353.845.117-.74-.182-.226-.243-1.112-.373,1.194-.842.124-1.071,1.338-.123-.49-.283.109-.421.033.244-1.495-.9-.561-1.162-.141-.068-.882.352-.434.356-.842-.128-.324-.255-.718-.392-.754.086.735-.072.211-.2.217a2.8,2.8,0,0,1-.129,1.025c-.18-.4.118-.675.036-1.048a4.823,4.823,0,0,1-.31-.746.485.485,0,0,1-.131.025,8.24,8.24,0,0,1-.174.966,1.246,1.246,0,0,0-.165-.512.481.481,0,0,1-.227.274,3.61,3.61,0,0,1,.138.834c-.34.154-.346-1.766-.815-.733.461.343.351,1.183.826,1.662-.185-.092-.623.079-.637-.425.044.084.092.067.143-.095-.171-.831-.367-1.027-.567-1.071a1.681,1.681,0,0,0,.093-.757c-.081.009-.163.02-.244.022.032.034.032.078-.064.285-.108-.11-.191-.257-.266-.3-.017,0-.035,0-.053,0-.067.025-.131.166-.2.558a.977.977,0,0,0-.248-.578c-.082,0-.163.008-.245.009a.76.76,0,0,0-.113.543c-.05-.171-.1-.344-.148-.515-.01,0-.019.006-.028.006-.1.581-.2.223-.378.363a2.122,2.122,0,0,1-.037-.222,1.763,1.763,0,0,0-.36.225c-.059-.175-.12-.35-.18-.527a1.086,1.086,0,0,1-.6.279.1.1,0,0,1-.131.02c-.692.043-1.416-.357-1.947.34-.318-.9-.694.44-.886-.523-.057.175-.114.35-.171.527-.282-.657-.56-.143-.925-.122-.676.037-1.758-.665-1.982.169a9.494,9.494,0,0,0-2.55.053c.01.026.014.051.026.082a.517.517,0,0,1-.7-.047,4.564,4.564,0,0,1-1.452-.163,3.244,3.244,0,0,0-.038.4c-.9-.309-1.81-.74-2.692.04l-.281-.768c-.358.617-.7.321-.97.073-.054.178.044.349.012.526-.2.122-.431-.827-.63-.475a2.363,2.363,0,0,1-2.569-.028c.181-.016.079.307.062.65-1.052-.73-2.075-.29-3.106-.186-.133-.248-.031-.526-.2-.769-.169.859-.378.219-.548.991-.309-.944-.566-.109-.868-.813-.378.809-1.176.13-1.721.361-.092-1.211-.842.332-1.217-.485-.143.285.017.524-.061.8-.137-.13-.327-.819-.531.078-.5-.7-.965-.454-1.435-.3-.214-.363.177-.82-.086-1.171-.059.1-.115.181-.17.273.006.029.014.059.021.087a.308.308,0,0,1-.017.257c-.235-.378-.01.509-.091.63-.079-.465-.272.715-.351.248.026-.535.3-.312.194-.859a1.357,1.357,0,0,1-.965.642c-.022-.492.129-.344.239-.591a.636.636,0,0,0-.021-.105.711.711,0,0,1,.047-.071c-.124-.265.023-.577-.147-.834a2.234,2.234,0,0,1-.263.519c.028.211.053.409.124.414-.2.147-.409.389-.571.011a.4.4,0,0,0,.2-.229c-.082.006-.161-.034-.226-.2.061-.06.26-.014.3-.236,0-.064,0-.133-.008-.209-.281.019-.564-.067-.821.541-.135-.24-.036-.526-.207-.755-.223.33-.406-.067-.5.879-.4-.828-.741.043-1.114.07-.119.332.316.56.083.909-.172-.14-.149-.571-.17-.828-.052.1-.1.186-.145.281-.026.313-.1.585-.21.408-.377.754-.667,1.388-.98,1.9.174-.706-.187-.236-.163-1.013-.064.541-.8,1.912-.745.985a5.649,5.649,0,0,0,1.193-2.518c.083.6.272-.243.349.43h0a2.457,2.457,0,0,1,.368-.608,1.791,1.791,0,0,0-1.535.093.918.918,0,0,0-.019-.18l-.02-.009c-.018.056-.037.123-.054.183l.037.034c-.019.009-.036.019-.055.026-.01.039-.021.073-.032.115-.015-.031-.033-.048-.049-.076-.026.014-.054.025-.08.039a.42.42,0,0,1,.025-.124,2.3,2.3,0,0,0-.331-.391c-.314-.06-.613.022-.633.577-.088-.282-.152-.051-.227-.085.009-.039.019-.078.029-.115a.87.87,0,0,0-.121.216.269.269,0,0,1,.053.039c-.044.141-.082.18-.119.183a4.159,4.159,0,0,0-.084.471.784.784,0,0,1,.006-.537c-.126-.236-.225-.933-.4-.388-.054-.192-.1-.247-.146-.254-.053.1-.107.2-.16.3-.128-.391-.282-.467-.46-.223.034.414.106.352.172.338a1.64,1.64,0,0,0,.049-.31c.2.541.381.481.544.147.056.36.283-.016.2.484a2.006,2.006,0,0,0-.9.095,1.8,1.8,0,0,0-.08.583c-.147-.174-.338.24-.441-.487.01-.025.02-.051.03-.078a1.014,1.014,0,0,1-.223-.028c.082-.253.2-.284.314-.267a1.088,1.088,0,0,0-.04-.661c-.241.642-.512,1.268-.772,1.9-.131-1.169-.532,1.047-.667-.06.07-.56.237-.231.211-.837.1.38.268-.15.389-.073a2.781,2.781,0,0,0-.087-.715c-.045.084-.089.169-.135.253a.082.082,0,0,1-.028.051c-.059.11-.116.222-.176.33,0-.961-.307-.14-.475-.639a.721.721,0,0,1,.149-.169.227.227,0,0,1-.079-.118c-.062-.279.153-.622.093-.9-.005,0-.01,0-.015,0-.156.726-.368.233-.548.478.219.563-.229.744-.329.6a1.415,1.415,0,0,0,.113-1.045c-.025-.019-.05-.039-.076-.054-.062.239-.117.718-.2.478a1.547,1.547,0,0,0-.048-.566,5.7,5.7,0,0,0-.916.045.541.541,0,0,1-.04.234,1.245,1.245,0,0,0-.1-.242.221.221,0,0,1-.045,0c-.025.074-.026.3-.12.309l-.194-.457a.933.933,0,0,1-.194-.177c.035.243-.084.406-.1.622-.072-.526-.219-.169-.329-.223,0,.057,0,.105,0,.169a1.251,1.251,0,0,1-.447-.813c-.083.141-.136.871-.241.591.043-.313-.07-.068-.14-.1a3.036,3.036,0,0,1,.176-.971c.122.261.23.245.324-.011a.455.455,0,0,0-.292.053c-.146-.344-.01-.544-.118-.87-.065.188-.059.414-.191.571a6.169,6.169,0,0,0-.153-1.023c-.215.375-.2.124-.342.625-.052-.564.091-1.03.041-1.594-.2.133-.429.516-.571-.039l.113-.206c-.017-.1-.032-.2.023-.256.033.6.369.445.331.04-.349-.118-.582-.248-.891.333.007-.775-.233-.288-.208-.921-.031.335-.166.588-.261.26a2.216,2.216,0,0,0,.134-1.544,4.411,4.411,0,0,0,.593-.219c-.086-.4.206-.608,0-1.079-.3.946-.6.861-.932.84-.024.54-.22,1.417-.456.831.133-.25.227-.042.377-.471a2.087,2.087,0,0,0-.208-.921c-.056.169-.077,1.013-.25.676.079-.084.1-.8-.046-.566-.18.3-.054.778-.329,1.033-.1-.3-.01-1.154-.149-1.028.034.389-.21,1.312-.388,1.135-.045-.541.166-.447.16-.723-.211.321-.049-.868-.194-.512.038,1.1-.6,1.307-.846.878a4.018,4.018,0,0,0-.093,1.031c-.141-.386-.274-.316-.263.256-.092-.411-.257-.008-.343-.461a1.581,1.581,0,0,1,.961-1.082,3.085,3.085,0,0,1-.012-.412c-.844.6-1.288-.14-2.2.924-.048-.521-.169-.256-.226-.671.337-.8.855-.614,1.182-1.895l-.068-.309c-.6.67-1.278,2.082-1.69.654-.488.278-1.208.791-1.415-.279-.033.337-.153.4-.264.25a.95.95,0,0,0,.129-.87c-.131.022-.24-.169-.315-.729-.149.239-.244.022-.2.563.074-.1.158-.315.207-.149-.112.792-.425.333-.67.96.028-1.687-.609-1.81-.952-2.6a3.258,3.258,0,0,0-.27-1.655,5.8,5.8,0,0,1,.127-.7c-.026-.1-.066-.16-.127-.154.058-.3.142-.189.2-.462a.413.413,0,0,1,.067.126,4.818,4.818,0,0,1,.185-.445c0-.009,0-.017,0-.025l.005.008a3.937,3.937,0,0,1,1.38-1.582c-.015.6-.189.369-.221.817.239.527.464-.555.773-.084.3-2.216,1.519-.521,1.99-1.41.49,1.143,1.342.53,1.7.158-.115-.164-.534.35-.427-.512.406-.2.691.321,1.028-.363.309.375.938.642,1.063-.212l.013.009c.006-.064.011-.13.021-.194-.156-.346-.248.028-.4-.313.2-.355.335.088.423-.51.29.8.573-.64.724.268.127.208.163-.609.254-.819a1.546,1.546,0,0,0,.882-.087c-.2-.341-.333-.465-.517-.757a.771.771,0,0,0-.375.381c-.121-.7-.3-.245-.449-.381a4.042,4.042,0,0,0-.078-1.211,3.837,3.837,0,0,0,.423-.952c0,.036,0,.047.006.076a.98.98,0,0,0,.151-.718c-.161-.475-.43.25-.548-.712-.07.143-.035.343-.136.467a1.87,1.87,0,0,0-.261-.64,2.048,2.048,0,0,1-1.091-.422.722.722,0,0,0,0-1.185,2.064,2.064,0,0,1,1.091-.423,1.873,1.873,0,0,0,.261-.639c.1.124.066.323.136.465.118-.96.387-.236.548-.71a1.092,1.092,0,0,0-.214-.828c.2-.637.491-.126.719-.4.148-.378-.1-.538-.045-.867-.171-.025-.339-.048-.5-.067a9.392,9.392,0,0,1,.873-1.4,1.545,1.545,0,0,0-.882-.085c-.09-.209-.127-1.027-.254-.819-.151.907-.434-.529-.724.268-.088-.6-.223-.155-.423-.51.156-.343.248.031.4-.313-.01-.064-.016-.13-.021-.2-.005,0-.006.008-.013.011-.125-.854-.754-.589-1.063-.212-.337-.685-.622-.164-1.028-.363-.107-.862.313-.347.427-.513-.356-.371-1.208-.983-1.7.16-.471-.889-1.7.806-1.99-1.408-.31.47-.534-.614-.773-.085.033.447.206.212.221.817a4.244,4.244,0,0,1-1.842-3.233,3.267,3.267,0,0,0,.27-1.656c.343-.791.98-.913.952-2.6.245.625.558.167.67.96-.049.166-.133-.053-.207-.149-.046.541.049.326.2.561.075-.56.185-.751.315-.727a.949.949,0,0,0-.129-.87.191.191,0,0,1,.08-.07,5.848,5.848,0,0,1-.308-.758c-.18.688-.286.158-.414,0-.37,1.089-.779.282-.969.758-.167-.622.292-.895.373-.812-.145-.661-.387.288-.528-.43-.087.282.1.651-.1.9-.06-.271-.144-.161-.2-.462.371.045,0-2.376.266-.578.4.017.775.38,1.207-.154.141.625.214.442.326-.031.028.183-.08.326-.032.519.154.323.086-.479.265-.581a9.429,9.429,0,0,0,.268,1.672c-.019.019-.034,0-.052,0a.535.535,0,0,1,.084.276c.207-1.07.927-.557,1.415-.281.412-1.427,1.086-.014,1.69.656.023-.1.045-.206.068-.31-.327-1.279-.845-1.1-1.182-1.895.057-.414.178-.149.226-.67a1.519,1.519,0,0,0,.944.611.215.215,0,0,0,0-.029.278.278,0,0,0,.016.033l.076.011a.371.371,0,0,1-.153-.13c.038-.69.223.172.375-.161a3.027,3.027,0,0,1,.068-.378c-.244.191-.278-.333-.512-.675.055-.735.26-.434.308.222.228-.285-.153-.85.135-.757-.115-.444-.42-.668-.16-1.237.132.042.16.363.009.665.053.147.128-.095.2-.212a5.844,5.844,0,0,1,.173.978c.27.057.554-.1.8.484.4-1.228.669.029,1.019-.248.039-1.053-.484-.516-.469-1.451.478.552.828-.287,1.321.884.167-.533.283-1,.463-.149h0a2.09,2.09,0,0,0-.06-1.461c.095-.344.147.1.232-.074-.111.414.154.923-.068,1.3.082-.138.158-.18.233-.175,0-.042,0-.074,0-.126a1.111,1.111,0,0,0,.127.18,1.171,1.171,0,0,1,.154.166.377.377,0,0,0,.282.071c-.3-.558-.486-1.047-.564-1.112.127-.62.375-.14.606.338.12-.025.255.133.384.222l.007-.014c.046-.555-.091-1.017-.041-1.574.141.5.127.25.342.625a6.169,6.169,0,0,0,.153-1.023c.133.155.126.383.191.571.108-.326-.028-.524.118-.87.3.172.572-.037.847-.177.078-.634-.133-.276-.3-.78.109-.414.314.305.4-.346.015.214.135.378.1.622.637-.8,1.418.136,2.064-.526a1.172,1.172,0,0,1-.05.561c.136.284.268.533.376.484.026-2.107.923.105,1.294-.378,0-.02,0-.04,0-.06-.254-1.724-.707-1.031-1.132-1.662.168-.5.472.323.475-.64l.338.634a2.778,2.778,0,0,0,.087-.713c-.122.076-.292-.453-.389-.073.026-.606-.141-.278-.211-.837.08-.657.254-.149.409.133.026-.521.362-.445.533-.609a2.684,2.684,0,0,1-.214.563c.241.578.488,1.158.71,1.749a1.29,1.29,0,0,0-.082-1.034c.1-.726.294-.312.441-.485a1.434,1.434,0,0,0,.266.943c-.08.194-.208-.206-.257.4.166.223.308.163.43-.157a2.248,2.248,0,0,1,.078-.471c.095.678.315.068.283.718-.03.113-.057.152-.082.157l.256.49c.019-.8-.131-.578.18-.761.14-.323,0-.512-.026-.754-.161-.037-.308-.167-.388-.49-.186.868-.7-.228-.783-.634.045.081.3-.1.178-.3-.134-.171-.258-.144-.375.076a.642.642,0,0,1,.022.524c-.215-.219-.4.138-.6.257.468-.975.419-1.958.8-1.22.23-.54.494-.236.729-.678a.849.849,0,0,1,.074.188c.075.076.155.194.2.147.009.239-.024.316-.073.327.025.051.058.082.113.068-.028.375-.3.1-.166.56.436-.141.994-.178,1.135-1.147.205.352-.013.785.181,1.14l.015-.023c.2-.892.593-.034.74-.105-.125,0-.241.248-.354.6a.728.728,0,0,0-.138-.284c.048.295.082.549.23.226a.908.908,0,0,1-.035.47.321.321,0,0,1,.3.18c.042-.141.083-.281.125-.42-.06-.471-.3-.1-.206-.488.062.171.111-.017.16-.225a6.309,6.309,0,0,0-.531-.769.525.525,0,0,1,.03-.26c-.276-.426-.586-.105-.875-.236-.063.251.079.544-.124.766-.115-1.4-1.107-.667-1.378-1.349-.132.622-.479.372-.227,1.011-.2.1-.2-.265-.192-.706-.182-.132-.294,1.2-.52.546.111-.43.178.037.279-.2a.67.67,0,0,1-.025-.4c-.449-.051-.929.6-1.324-.558a3.18,3.18,0,0,1-.24,1.264,1.981,1.981,0,0,1,.19-1.143c-.186-1.124-.505.524-.7-.428-.3.416.065.985-.113,1.425a7.137,7.137,0,0,1-.066-1.465c-.145-.513-.2.461-.279.2a1.585,1.585,0,0,0,.1.684c-.165.144-.389-.295-.279-.727-.358.8-.31.009-.587.916-.265-.588-.3-.394-.624-.152-.021-.355.16-.665-.037-1.064q.128-.3.256-.6c.163.022.042.7.267.064a.664.664,0,0,1-.026.523c.277.028,1.122.53,1.03-.811.1-.284.158.447.241.585a1.433,1.433,0,0,0-.075-1.2c.1-.141.549.039.329.6.183.25.4-.284.559.526.1-.287-.154-.651-.089-.944.18-.49.584.628.521-.543.127-.279.137.44.062.543.162.068.327.062.508-.282.032.226-.029.434.014.664.093.25.211-.051.305.2a3.765,3.765,0,0,0-.015-.664c.361.626.748.654,1.144.513.12-.347-.136-.074-.154-.561.151-.344.257.268.418-.307.251.792.344-1.064.594-.27-.094.105-.185.1-.277.2.088.713.244-.112.331.6.125-.2.041-.433-.015-.662.075-.036.14.2.227-.085.031.913.822.55,1.192.374a.921.921,0,0,0,.019-.181,1.782,1.782,0,0,0,1.55.09,1.571,1.571,0,0,0-.1-.679c.218-.62.32.316.283.713.257.206.033-.772.309-1,.233.347-.2.577-.083.909.373.026.709.9,1.114.07.1.946.279.55.5.879.171-.231.072-.515.207-.755.259.613.546.519.828.54.085-.482-.219-.371-.3-.445.206-.5.525-.068.737.521.182-.278-.012-.619.169-.9-.106-.454-.311-.141-.286-.706.562.048.916.465,1.38,1.279a.492.492,0,0,0,.071-.146,1.2,1.2,0,0,1-.171-.181.581.581,0,0,1,.189-.039c-.018-.271-.149-.561,0-.806.47.15.936.392,1.435-.3.2.9.394.208.531.078.078.276-.082.516.061.8.375-.816,1.125.727,1.217-.484.544.231,1.342-.448,1.721.361.3-.7.559.133.868-.813.17.771.38.132.548.991.169-.245.066-.521.2-.769,1.031.1,2.054.544,3.106-.188.017.344.119.667-.062.651a2.363,2.363,0,0,1,2.569-.028c.2.352.427-.6.63-.475.032.177-.066.346-.012.526.27-.248.612-.544.97.073l.281-.768c.882.778,1.792.35,2.692.039a3.215,3.215,0,0,0,.038.4c1.567-.47,3.115.208,4.677-.073.224.836,1.306.13,1.982.169.365.02.643.535.925-.124.057.177.114.352.171.529.192-.963.568.372.886-.524.727.952,1.809-.147,2.68.639.06-.175.121-.352.18-.527,1.125.943,2.259-.171,3.386.825.318-.521.635-.188.953-.081.117-.321.29-.273.414-.1a.634.634,0,0,0,.129-.146c.27.709.541-.017.809.372a1.015,1.015,0,0,0,.046-.316,1.275,1.275,0,0,1,.082.4,2.342,2.342,0,0,1,2.341.11c.029-.054.063-.062.116.023.1-.016.206-.019.309-.026a1.174,1.174,0,0,0,0-.212c-.066-.4-.364.163-.277-.544.078.116.156.109.235-.118.082.654.319.554.423.851.126,0,.252.009.377.019.27-.355.615-.484.781.034a1.474,1.474,0,0,1,0-.529c.06.152.122.282.186.015a2.228,2.228,0,0,1,.052.594l.059.009a1.375,1.375,0,0,1,.028-.2c.289-.243.881.515.89-.586.066.6.143,1.289.417.431a3.539,3.539,0,0,1,.113.588l.14.015a1.522,1.522,0,0,0-.022-.454,1.71,1.71,0,0,0,.149.47c.124.012.25.022.376.028a1.293,1.293,0,0,0,.034-.185.408.408,0,0,0,.089.189,4.956,4.956,0,0,0,1.048-.06l.181.509c.078.129.08-.23.041-.4.968.411,1.669.31,2.651.755.055-.181.112-.364.169-.546.183.07.077.96.358.484.043-.259-.074-.109-.135-.378.118-.172.31-.053.311.355a53.556,53.556,0,0,1,7.927.538.7.7,0,0,1,.087-.268,1.6,1.6,0,0,0,.023.281l.136.019a.908.908,0,0,0,.075-.2c.095.023.17.126.239.239l.551.074.006-.011,0,.012.642.087a.7.7,0,0,1,.052-.31.927.927,0,0,0,.1.332c.388.053.778.105,1.167.16a5.518,5.518,0,0,0-.342-.589c.154-.1.306-.406.459-.572.071.253.093.789.237.371.048.214,0,.439.053.653.21.338.118-.321.319-.69-.033,1.106.79,1.2.886.05,0,.654.2-.016.332.626-.151.482-.312-.18-.463.307a.261.261,0,0,0,.008.048c.111.016.221.033.333.047a.962.962,0,0,1,.217-.147c0,.06.018.121.025.181.106.014.211.026.317.042.005-.132.037-.23.122-.264-.009.124-.012.208-.012.276.082.011.164.019.245.029-.023-.3-.086-.1.185-.473a3.752,3.752,0,0,0,.043.5l.277.033c.032-.037.071-.022.112.014l.274.033a.876.876,0,0,0,.087-.248c-.56-.11-1-.91-1.631-.259.229-.906-.429-.375-.338-1.416.074-.261.153-.133.228-.417.09.858.48.2.558-.313-.132.766.22.676.058,1.442.124-.051.251.372.373-.029.093-.43-.375.07-.052-.654-.1-.58-.185.343-.282-.239.087-.23.037-.442.133-.668.274.857.351.172.419-.431.007,1.1.6.343.889.586.1.492-.015.347-.136.668.312.87.826.02.985.847.19-.319-.028-.611.041-.923-.249-.017-.5-.188-.745.053a2.211,2.211,0,0,1-.008-1.05c.064.267.126.136.186-.015a1.491,1.491,0,0,1,.005.529c.259-.811.959-.042,1.122.709-.115-1.327.339-.659.459-1.613.079.226.156.234.234.118.088.707-.211.144-.277.544-.081.55.19.9.427,1.681.215-.733-.2-.743-.192-1.3.235-.516.183.057.421.369a4.444,4.444,0,0,0-.042.924c.111.192.216-.423.328.112-.2.541-.407-.554-.6.431-.235-.537-.47-.988-.7-.873-.082.326.212.2.281.242.074.394-.145.467-.185.2.011,2.262,1.348.2,2.052,1a1.336,1.336,0,0,0-.1.374c.05,0,.1,0,.151,0a2.978,2.978,0,0,1-.048-.377c.2-.31.142-.5.371-.809-.332-.282-.53.256-.936-.737.2-.63-.015-.623.277-1.07-.008.442-.183.889.1,1.312.311,0,.621-.288.933-.05a1.168,1.168,0,0,0-.092.794.559.559,0,0,1-.418.152,1.541,1.541,0,0,0,.281.775.652.652,0,0,0,0-.526c.269-.363.067.752.373.507.019-.4-.094-.785-.049-1.183.324.98.959-.017,1.305.992.069-.31-.05-.614.139-.929.171.3.341-.06.513.639a2.064,2.064,0,0,0-.177.719c.019.043.036.088.055.133a.4.4,0,0,0,.078.068,1.026,1.026,0,0,1,.128-.042c.1-.2.227-.185.324-.068.024,0,.046,0,.07,0-.044-.448-.222-.83-.385-.288.108-.4-.067-.788.046-1.186.186.926.4.554.79,1.154-.109.544-.217-.242-.325.146a1.016,1.016,0,0,0,.012.172l.088.011c-.019-.022-.033-.047-.053-.067.109.053.3.019.452.082a.8.8,0,0,1,.058-.219,2.677,2.677,0,0,0,.036.285.23.23,0,0,1,.017.02,3.186,3.186,0,0,0,.754.113c.035-.709-.371-.533-.387-1.09.046-.124.093.056.14.129.208-.268-.113-.523.094-.792.163.4.419-.039.326.65.155.577.312-.27.465-.012.04-.347-.041-.847-.185-.523.042-.91.595.735.654-.54.092.261.185.521.277.782a2.347,2.347,0,0,0-.142.662c.179.316.186-.185.282-.533.278,1.05.566.051,1.073-.411.268.741.887-.332,1.3.253,0,.623-.2.147-.329.4.06.7.524.546.743.523.086-.654-.293,0-.229-.657a1.941,1.941,0,0,0,.284-.788c.109.267.3,1.068.456,1.577.21.2.17-.687.333-.921.113-.087.455.716.42-.13.353.724.711.535,1.069.4.22-.392-.163-.791.057-1.183.264.4-.088.788.129,1.188s.236-.665.384-1.05c.122.271.248-.107.373.008a1.852,1.852,0,0,1,.2-1.05c0,.2.05.566.137.4.1.374-.144.043-.192.521.121.476.249.045.373.009.095.349-.182.473-.236.389a8.684,8.684,0,0,0,.037.923c.178.036.191-.448.278.267.211-.591-.043-.468-.038-.921.2-.354.169.313.226.662.216.222.438-.1.654.016.02-.4-.125-.792-.128-1.186.211-.191.421-1.225.664-.771.2-.8.246-1.225.67-1.3-.127.262-.288.278-.29.782.136.38.278.2.42.143.088.268-.074.523.083.791-.178-.065-.533.637-.559-.017a1.865,1.865,0,0,0,.035.923c.16.077.123-.733.326.14.212-.254-.109-.527.1-.783-.049.792.206.775.416.408.108.5-.07.619-.193.518.075.257.154.124.228.406.059-.307.338-.6.245-.913.084-.068.387.749.328-.119.118-.177.181.568.3.8a.139.139,0,0,1,.009-.02c.005.012.005.026.009.039.037.056.08.07.133-.012a1.418,1.418,0,0,0-.131-.664c.235-.073.674-.777.748.031.066.115.4-.1.193-.515.337.105.746.724.94,1.8.151.078.3.16.452.248a.953.953,0,0,1,.082-.664c-.211-.533-.218-.181-.372-.022a1.589,1.589,0,0,1-.074-1.318.769.769,0,0,1-.053.394c.125.231.249.5.382.216a.729.729,0,0,1-.243-.127.747.747,0,0,1,.288-.121c-.041-.056-.164-.022-.187-.35.133-.543.244.38.378-.242a1.618,1.618,0,0,0,.082.49.647.647,0,0,0,.177-.174.86.86,0,0,0,.1.3,3.036,3.036,0,0,0,.578-.822,2.485,2.485,0,0,1,.074,1.306l0,.006-.005,0a.2.2,0,0,1-.142.132,1.668,1.668,0,0,0,.01-.188.934.934,0,0,0-.276-.1l-.01.011c-.053.228.074.248.138.14-.072.474-.391.27-.638.287a1.041,1.041,0,0,1,.034.257,1.621,1.621,0,0,0,.9.388c.032-.048.061-.033.087.011.092.011.183.022.277.029.02-.053.041-.107.066-.192a.827.827,0,0,1,.071.2,2.945,2.945,0,0,1,.877.172c0-.025.006-.04.009-.068,0,.029,0,.045,0,.071a1.6,1.6,0,0,1,.3.155,1.066,1.066,0,0,0-.083-.532c.127-.183.253-.278.368.292.093-.836.191-.1.383-.5a.464.464,0,0,0-.025-.371c-.135.367-.409.175-.667-.074.049.253-.126.109-.054.391-.492-1.306-1.023-.369-1.526-1.025a1.1,1.1,0,0,1,1.313-.174,1,1,0,0,1-.1.519c.124.051.241.385.367.285-.126-.121-.246-.253-.346-.343.289-.411.645.352.951.236a.344.344,0,0,1,.061-.366c.019.11.036.2.055.268,0,0,.008,0,.012-.011,0,.012-.005.017-.006.029.04.146.081.2.128.2.058-.138.122-.18.19-.129a1.135,1.135,0,0,1,.226-.186,4.162,4.162,0,0,0,.108.465.818.818,0,0,1,1.347-.127c.512-.389,1.162.287,1.821-.312-.037.577.165,1.085.275.292a1.668,1.668,0,0,1,.119.935c.06.062.122.13.186.017a3.189,3.189,0,0,0-.111-1.2c.283-.485.039,1.1.367.3.049.943.14.62.4.7a1.412,1.412,0,0,0-.117-.934c.427.758,1.129.228,1.406,1.864.212.318.226-.115.38-.217.14-.381-.1-.8.078-1.178a1.861,1.861,0,0,1,.065,1.061c.182-.09.182.146.266.381a.122.122,0,0,1,.127-.034c.066-.644-.171-1.389-.366-1.4.1-.186.063-.386.008-.262.34-.712.814-1.475,1.267.02.181-.329-.2-.726.029-1.048.142.761.631-.017.936.118.084.229.029.443.123.673.022-.217-.048-.443.064-.65.169.065.051.186.173.55.044-.169-.051-.36.016-.526.218-.518.409-.025.359.577.05-.171.1-.194.145-.115a1.092,1.092,0,0,0-.079-.537c.438.031,1.154-.833,1.4.2.451-.656.307.285.571-.183a3.594,3.594,0,0,0,.658,1.548c-.121.329-.225.167-.341.343.126.484.288-.188.416.2a1.068,1.068,0,0,0-.075-.538c.3-.014.612-.5.911-.519a1.089,1.089,0,0,0-.079-.541c.143-.034.291-.2.419.2.1,1.458,1.107-.375,1.534.644a7.641,7.641,0,0,0-1.663.389c.176.368.373.113.563.09.049.633-.25.107-.341.341.084.276.17.554.254.831.1-.2.055-.43.162-.633a2.2,2.2,0,0,1,.34.834,1.464,1.464,0,0,1,.286-.233,1.29,1.29,0,0,1-.211-.4,2.817,2.817,0,0,0,.079-.91c.087.206.261,1.861.66,1.3a1.181,1.181,0,0,0-.066-.8c.138-.284.236.313.372.676.1-.1.205-.225.307-.327a.62.62,0,0,1,.079-.485.322.322,0,0,1-.009.262.329.329,0,0,0,.016.141c.171-.144.333-.188.472.1a3.784,3.784,0,0,0-.313.318,1.758,1.758,0,0,1-.015.264c.087-.1.407-.217.312.45.113-.088.211.257.331-.074a9.7,9.7,0,0,0-.193-1.192c-.047-.062-.093-.122-.14-.177.256-.428.437.163.666.1a.533.533,0,0,1,.1-.236c.261.222.537.109.806.149.02-.037.04-.076.06-.112,0-.16-.2-.164-.231-.586.163-.144.256.119.343.386.054-.1.107-.2.162-.288-.14.563.058.388.135.682a.752.752,0,0,0,.14-.237.3.3,0,0,1,.032.074c.229-.577.64-1.194.6-.492a6.121,6.121,0,0,0-.529.769c.048.208.1.4.16.225.094.389-.147.017-.208.488.042.14.083.279.126.42a.321.321,0,0,1,.3-.18.9.9,0,0,1-.035-.47c.148.323.181.068.228-.228a.733.733,0,0,0-.138.285c-.112-.347-.229-.6-.355-.6.148.071.543-.785.74.1l.015.023c.194-.355-.023-.786.182-1.138.14.969.7,1.006,1.134,1.147.129-.456-.137-.185-.165-.56.2.051.127-.417.313-.73.234.442.5.138.728.678.382-.738.333.245.8,1.22-.2-.119-.389-.476-.6-.257a.635.635,0,0,1,.021-.524c-.117-.22-.243-.247-.375-.076-.12.2.131.38.176.3-.082.406-.6,1.5-.782.634-.08.323-.227.453-.388.49a1.476,1.476,0,0,1-.046.212c.127.237.225.935.4.389.054.192.1.247.147.253l.158-.3c.129.392.282.467.46.226-.033-.417-.1-.354-.172-.34a1.484,1.484,0,0,0-.048.309c-.2-.541-.38-.479-.545-.146-.057-.361-.283.014-.2-.485a2,2,0,0,0,.894-.093,1.742,1.742,0,0,0,.082-.583c.145.174.337-.24.44.485-.01.026-.019.053-.029.079a.932.932,0,0,1,.223.028c-.082.253-.2.285-.315.265a1.1,1.1,0,0,0,.04.662c.223-.591.469-1.171.712-1.749a2.657,2.657,0,0,1-.214-.563c.171.164.505.088.533.609.154-.282.328-.791.409-.133-.071.56-.236.231-.211.837-.1-.38-.266.149-.389.073a2.744,2.744,0,0,0,.086.713l.135-.251c.008-.028.016-.045.028-.051l.177-.332c0,.963.307.141.475.64a.786.786,0,0,1-.151.169.221.221,0,0,1,.08.118c.06.279-.153.62-.094.9l.016,0c.154-.729.368-.236.547-.481-.22-.563.23-.743.33-.6a1.4,1.4,0,0,0-.113,1.044.49.49,0,0,0,.074.054c.064-.239.116-.716.2-.478a1.588,1.588,0,0,0,.048.568,5.876,5.876,0,0,0,.916-.047.521.521,0,0,1,.041-.233,1.365,1.365,0,0,0,.1.242.442.442,0,0,1,.045,0c.025-.076.028-.3.121-.309.065.152.129.305.194.456a.927.927,0,0,1,.194.178c-.035-.243.084-.408.1-.622.071.526.217.167.329.222,0-.056,0-.1,0-.167a1.258,1.258,0,0,1,.448.811c.083-.141.134-.87.24-.589-.044.313.07.067.14.1a3.056,3.056,0,0,1-.176.969c-.122-.259-.23-.243-.326.012a.463.463,0,0,0,.292-.053c.146.346.01.544.12.87.064-.188.058-.416.191-.571a6.1,6.1,0,0,0,.153,1.023c.215-.375.2-.126.34-.625.052.564-.09,1.03-.041,1.593.2-.132.429-.515.572.039-.038.07-.076.138-.113.208.017.1.033.2-.023.256-.033-.6-.369-.447-.331-.042.349.121.58.25.891-.33-.009.775.232.285.207.92.03-.335.165-.588.261-.26a2.218,2.218,0,0,0-.136,1.543,1.873,1.873,0,0,1-.3.1.8.8,0,0,1,.189.406.418.418,0,0,1,.089-.039.326.326,0,0,1,.077-.305c.108-.091.2.16.3.14a2.091,2.091,0,0,1,.2-.808c-.088-.4-.257.8-.329.05.075-.6.438-.422.611.025.183-.219.082-.507.227-.735.211.518.661,1.172.772.6.089-.115.074.24.026.4.166.138.327.355.533-.257.063.4.149.319.224.484a.535.535,0,0,1,.054.065,4.03,4.03,0,0,0,.091-1.031c.141.386.274.316.264-.256.091.409.255.008.343.461a2.01,2.01,0,0,1-.5.8,1.645,1.645,0,0,1,.286.426c.169-.015.332-.019.5-.045a.168.168,0,0,0,.016-.033.215.215,0,0,0,0,.029,1.519,1.519,0,0,0,.944-.611c.048.521.169.256.228.67-.337.8-.856.616-1.183,1.895l.068.31c.6-.67,1.279-2.083,1.692-.656.488-.276,1.208-.789,1.415.281.033-.338.154-.4.264-.25a.945.945,0,0,0-.131.87c.131-.023.241.167.316.727.148-.236.245-.02.2-.561-.074.1-.157.315-.206.149.111-.792.423-.335.669-.96-.026,1.687.611,1.81.952,2.6a3.289,3.289,0,0,0,.272,1.656,5.559,5.559,0,0,1-.128.7c.028.1.067.16.128.152-.059.3-.143.191-.2.462a.362.362,0,0,1-.068-.126,4.322,4.322,0,0,1-.183.443c0,.011,0,.019,0,.028l0-.008a3.953,3.953,0,0,1-1.38,1.582C544.746,173.721,544.919,173.955,544.953,173.509Zm-16.013-17.53c.218-.095.157.262.469.095-.048-.426-.118-.771-.248-.844.061.585-.2.209-.136-.16A1.829,1.829,0,0,0,528.941,155.979Zm-116.6-.909c.067.369-.2.744-.136.16-.132.073-.2.417-.248.844.311.167.251-.189.467-.095A1.822,1.822,0,0,0,412.343,155.07Zm-13.88,17.37c-.032-.347-.335-1.006-.434-.557C398.074,172.354,398.332,172.535,398.463,172.44ZM398.33,194.1c0-.042,0-.082,0-.126.01.029.017.034.026.057a1.46,1.46,0,0,0,.106-.4c-.131-.095-.389.087-.434.558C398.09,194.466,398.226,194.326,398.33,194.1Zm130.7,16.907c-.068-.369.2-.744.136-.16.131-.073.2-.417.248-.845-.312-.166-.251.191-.469.1A1.83,1.83,0,0,0,529.025,211.005ZM542.9,187.427c.032.349.336,1.006.435.558C543.294,187.516,543.034,187.333,542.9,187.427Zm-3.7,6.916,0-.009c-.1-.129.025.85-.169.552-.005.18.079.214.129.358a.743.743,0,0,1,.143-.225,1.791,1.791,0,0,1-.074-.547A.88.88,0,0,1,539.2,194.343Zm-10.76,9.388c.072-.174.17.312.238.081.028.217-.041.448.074.645.133-1.123.344-1.717-.095-2.346l0,.012c-.034.219.138.4.075.626-.146.029-.239-.029-.33-.216,0,.279.174.47.046.808a1.718,1.718,0,0,0-.274-.916.093.093,0,0,1-.04-.048c-.048-.056-.1-.112-.154-.181a1.326,1.326,0,0,1-.082.292.845.845,0,0,1,0-.4l-.016-.025c-.071-.014-.141.053-.2.364-.062-.4-.243-.226-.261-.447-.042.039-.084.079-.125.119a5.546,5.546,0,0,0,.117.645.374.374,0,0,0,.134.155,1.744,1.744,0,0,0-.125-.406c.127,0,.406.144.348.581a1.392,1.392,0,0,1,.14.364c-.094.4-.234-.361-.32.2.087.357.282-.012.115.506a.563.563,0,0,0,.476.171c.058.243-.074.13-.124.422a.824.824,0,0,0,.029.084c.01-.014.01-.029.023-.043a1.665,1.665,0,0,0,.043.228c.088.161.166.067.248.056-.089-.679.054-.247.206-.7A1.686,1.686,0,0,0,528.444,203.731Zm-52.975,7.251c.239-.456-.042-.971.066-1.439a.445.445,0,0,1-.182-.285A3.438,3.438,0,0,0,475.469,210.982Zm-62.33-52.038a.635.635,0,0,1,.149-.084,3.091,3.091,0,0,1,.1-.55.925.925,0,0,0-.122-.2.154.154,0,0,0-.013.017c-.006-.016-.008-.031-.014-.047-.039-.037-.077-.059-.112-.05A1.99,1.99,0,0,0,413.139,158.944ZM521,156.754c-.084.169-.206.164-.127.563a2.035,2.035,0,0,1,.357-.377C521.153,156.788,521.076,156.735,521,156.754Zm6.125,45.535-.012.012c-.111.388.089.892.18.861A1.261,1.261,0,0,0,527.128,202.289Zm-.01,3.734a.986.986,0,0,0,.039-.34.944.944,0,0,0-.292-.467c-.029.07-.059.14-.082.211C526.879,206.006,527,205.883,527.118,206.023Zm-3.992-2.952c-.185,0-.377.171-.546-.267a.192.192,0,0,0,.176-.031.676.676,0,0,1-.249-.076c-.008.074-.006.147-.009.222a.374.374,0,0,1-.005.115c0,.04,0,.079,0,.116a1.359,1.359,0,0,1,.422.35C523.016,203.346,523.136,203.258,523.126,203.07ZM416,204.894a2.177,2.177,0,0,0-.087.276c-.051-.026-.078-.116-.1-.216a.535.535,0,0,0-.129.076c-.006.293-.006.586-.132.2,0-.02,0-.029,0-.05a.093.093,0,0,1-.017,0,1.919,1.919,0,0,0-.281.543c.254.157.51.526.613-.425.111.019.16.146.19.44.006-.012.014-.019.021-.031.061-.5.328-.059.234-.493-.062-.123-.174-.043-.149-.349A.894.894,0,0,0,416,204.894Zm4.336-47.578c.042-.081.088-.009.134.078.112-.479-.021-.461-.112-.639-.1-.025-.2.082-.31.381A.764.764,0,0,1,420.34,157.315Zm-.573-1.6c.2.394.3.082.4.729a4.245,4.245,0,0,1,.269-1.265c-.165.126-.348.35-.51.326A.535.535,0,0,1,419.768,155.715Zm.777-.6a7.886,7.886,0,0,1-.012,1.008c.124-.06.252.02.367-.319a.831.831,0,0,1-.045-.113v0l0-.015a2.935,2.935,0,0,1-.122-.487A.14.14,0,0,0,420.545,155.113Zm5.856.611c0,.056,0,.109.009.163a.121.121,0,0,1,.127.034c.015-.04.028-.074.039-.113C426.521,155.684,426.463,155.638,426.4,155.724Zm2.306.848a.237.237,0,0,0-.232-.084,1.745,1.745,0,0,1-.029.49.249.249,0,0,1,.25.05C428.69,156.875,428.722,156.728,428.708,156.573Zm91.682,1.241a.192.192,0,0,0,.128.05c.03-.053.059-.1.089-.144-.057-.124-.154-.211-.208-.349A.935.935,0,0,0,520.39,157.813Zm.343-.563c-.012.056-.026.11-.037.171C520.738,157.447,520.742,157.367,520.733,157.25Zm-3.49,44.843-.059.031c.023.028.046.051.068.076.005-.016.015-.017.019-.036A.574.574,0,0,0,517.243,202.093Zm-1.9,1.031a.853.853,0,0,1-.219.079.567.567,0,0,0,.054.206c.055.121.122-.154.178.026A.677.677,0,0,0,515.34,203.125Zm-100.66-43.576a2.281,2.281,0,0,1,.054.367l.024-.031A.545.545,0,0,0,414.679,159.548Zm6.271-3.621c.151.3.294.406.434.33C421.418,156.028,421.04,155.211,420.95,155.928Zm1.357,2.831c.053-.287.183-.169.127-.412-.141-.122-.108-.506-.12-.738a.784.784,0,0,0,.006.644c-.077.309-.1.254-.115.088a1.657,1.657,0,0,1,0,.169c-.179.473-.373.411-.564.426.019.037.037.085.055.119.284-.095.575-.115.773.445a1.078,1.078,0,0,1,.149-.316A.723.723,0,0,1,422.306,158.759Zm6.274-1.444c-.211-.219-.116.217-.317.43.086.324.162.242.244.369C428.661,157.833,428.5,157.59,428.581,157.315Zm4.893.09a1.248,1.248,0,0,0-.131.189v-.014a4.249,4.249,0,0,1-.215.5c.163.445.307-.124.454-.564C433.544,157.426,433.509,157.4,433.473,157.405Zm.112.375c.086.735.486.358.7.079C434.051,157.658,433.816,157.588,433.585,157.781Zm87.5-.1a1.034,1.034,0,0,0-.035.233c.019.057.035.127.055.189v0c.012,0,.023-.011.034-.009l-.013.043a.389.389,0,0,0,.075.087.122.122,0,0,0,.076-.054.867.867,0,0,1-.033-.484A.8.8,0,0,1,521.089,157.678Zm4.189,2.676a.548.548,0,0,1-.061.219,2.193,2.193,0,0,1,.125.408c-.035.22-.094.143-.151.085a.633.633,0,0,1,0,.132.872.872,0,0,0,.169-.016,2.24,2.24,0,0,0,.087-.279c.052.028.078.118.1.217a.6.6,0,0,0,.129-.074c.005-.3.006-.589.131-.208,0,.029,0,.042,0,.067a1.856,1.856,0,0,0,.3-.563c-.255-.157-.51-.527-.613.425-.112-.019-.161-.147-.19-.442A.354.354,0,0,1,525.278,160.355Zm1.763-.24c.026-.008.054-.028.082-.039,0-.008,0-.016-.005-.023A.27.27,0,0,1,527.042,160.114Zm-15.269,43.6c-.017.062-.033.107-.054.192.029.2.068.24.111.22.019-.056.037-.112.054-.166C511.848,203.872,511.812,203.795,511.773,203.714Zm-.383-.453a.24.24,0,0,0-.136-.034c-.043.287.182.6.041.882l.005.026C511.532,203.615,511.476,203.408,511.39,203.261Zm-.741.772c-.05-.188-.086-.2-.125-.4-.017.014-.032.033-.049.036a1.021,1.021,0,0,1,.035.287,3.647,3.647,0,0,1,.037.4c.028-.025.054-.051.082-.078C510.635,204.2,510.643,204.119,510.649,204.033Zm.68-1.321a1.253,1.253,0,0,1,.066-.138c-.1-.251-.18-.1-.243.138A1.679,1.679,0,0,0,511.329,202.712Zm-.461-.045a.953.953,0,0,0,.131.022l-.008-.143C510.942,202.543,510.9,202.594,510.868,202.667Zm.164.7a.472.472,0,0,1,.091.073,2.829,2.829,0,0,0-.032-.428C511.067,203.142,511.046,203.27,511.031,203.363Zm14.473-3.329c.161.017.341-.169.361-.589-.174.279-.318-.133-.5.251C525.416,199.8,525.462,199.915,525.5,200.034Zm-14.6,3.624c.025-.011.05-.02.078-.029a2.416,2.416,0,0,0,.037-.535c-.054.07-.107.053-.163.225C510.865,203.453,510.883,203.545,510.9,203.658Zm15.645-43.593c-.005-.009-.006-.019-.011-.028,0,.009-.006.011-.009.019Zm-100.869-1.231c.211.335.208-.332.215-.682C425.763,157.894,425.673,158.68,425.676,158.833Zm-1.887.676a.523.523,0,0,0-.066.078A.367.367,0,0,0,423.788,159.51ZM406.28,189.153a.479.479,0,0,1,.23-.079v-.047c-.067-.034-.133-.071-.218-.323A1.065,1.065,0,0,0,406.28,189.153Zm17.875-29.771a.189.189,0,0,1-.117,0,.574.574,0,0,0-.074.008c.068.7.415.361.646.1A3.7,3.7,0,0,1,424.155,159.382Zm.481-.941c-.127-.09-.269-.678-.381-.216C424.39,158.553,424.532,159.139,424.637,158.441Zm-.969-1.194c.067.133.131.223.192.243,0-.029.005-.057.006-.085A.444.444,0,0,0,423.667,157.247Zm16.042-.741a.353.353,0,0,1-.039.051c.012,0,.021,0,.033,0C439.7,156.54,439.707,156.523,439.709,156.506Zm-15.986.25a.2.2,0,0,0-.083.084A.327.327,0,0,0,423.723,156.756Zm-1.312,3.132c-.029-.366-.131-.4-.23-.33a2.417,2.417,0,0,1,.223.347Zm11.925-1.9c.145.416.376.1.367-.292C434.576,157.6,434.45,157.5,434.336,157.99Zm-12.032-.464a.226.226,0,0,0-.024-.073C422.288,157.474,422.3,157.5,422.3,157.526Zm-.145.2c.005.138.021.273.033.409A2.886,2.886,0,0,0,422.159,157.722Zm-1.566-1.213a.665.665,0,0,0,.025.285.234.234,0,0,0,.03-.09.287.287,0,0,1,.016.129c.092.006.245-.192.319.144.005.02,0,.036.008.054a.257.257,0,0,1,.109-.129.638.638,0,0,1,.019-.079C420.93,156.256,420.764,156.469,420.593,156.509Zm.077.912c-.01-.06-.023-.115-.035-.171C420.625,157.367,420.628,157.447,420.67,157.421Zm.059.388c.161.132.314.028.459-.333a.761.761,0,0,1-.061-.133.306.306,0,0,1-.129-.1C420.965,157.5,420.777,157.59,420.729,157.809Zm.145.93a.276.276,0,0,0,.129.054c-.042-.022-.086-.039-.131-.059Zm.06.247a.307.307,0,0,0,.418.181c.005-.071.012-.155.021-.27a.6.6,0,0,1-.116-.02.2.2,0,0,1-.319-.028C420.936,158.91,420.936,158.936,420.935,158.985ZM406.51,177.047V177a.475.475,0,0,1-.23-.078,1.058,1.058,0,0,0,.012.447C406.377,177.119,406.443,177.083,406.51,177.047Zm103.78,26.477c-.024.029-.047.04-.068,0a.426.426,0,0,1-.016-.14,1.612,1.612,0,0,0-.431.09.551.551,0,0,0,.206.279C510.108,203.771,510.235,203.832,510.29,203.525Zm2.755.732a2.158,2.158,0,0,1-.089.243c.03-.009.062-.048.1-.157C513.052,204.309,513.046,204.288,513.045,204.257Zm-.039-.287c-.057-.012-.113-.022-.168-.037a.835.835,0,0,0-.095.243c.016.033.032.07.046.105.083-.124.167-.122.255-.026A1.009,1.009,0,0,0,513.006,203.97Zm2.975-1.385c.117.04.191.251.4.019-.126-.068-.255-.136-.385-.209C515.992,202.458,515.986,202.521,515.981,202.585Zm17.311-38.892c-.037-.141-.112-.22-.187-.171A.36.36,0,0,0,533.292,163.693Zm-10.461-5.756a.089.089,0,0,1-.037-.053.659.659,0,0,0-.075.171A.6.6,0,0,0,522.831,157.937Zm-74.426.3a.885.885,0,0,0,.085-.2c-.057,0-.113-.008-.169-.014A1.8,1.8,0,0,0,448.4,158.233Zm-11.723.64a1.566,1.566,0,0,0,.087-.257c-.115-.377-.221-.236-.324.154a.56.56,0,0,0,.046.1Zm-4.18-1.664c-.087.27-.175.541-.263.811a.667.667,0,0,0,.692-.453C432.776,156.957,432.657,157.95,432.5,157.21Zm-4.576-.488a.188.188,0,0,1-.061.014.781.781,0,0,0,.037.123.217.217,0,0,0,.021-.062A.5.5,0,0,0,427.926,156.722Zm-.289-.355c-.022.1-.048.183-.073.257.052,0,.114,0,.2-.141C427.724,156.481,427.68,156.436,427.637,156.366Zm-.244.633a.5.5,0,0,1-.051.059c.008.042.015.074.021.129C427.373,157.111,427.383,157.056,427.393,157Zm-.984,2.258a1.819,1.819,0,0,0-.252-.1l.03.043c.055.036.108.067.163.107C426.37,159.291,426.389,159.272,426.409,159.257Zm-.911-3.121a.458.458,0,0,1,.031.1c-.038.1-.064.18-.083.247.109,0,.216-.1.32-.309-.006-.012-.005-.025-.012-.037.025-.065.049-.082.073-.079l.005-.009C425.707,155.574,425.612,156.193,425.5,156.135Zm.057-.63-.005.017Zm-.021.065c-.071.208-.138.237-.2.228-.054.1-.109.171-.154.264.062.04.185-.081.273-.006A.84.84,0,0,1,425.534,155.571Zm-3.034,1.445a.791.791,0,0,1,0,.25c-.031.1-.059.112-.086.091.093.5.208.709.384.673.119-.616-.174-.443-.168-.9.236-.665.273.107.475.194.084-.206.024-.566.128-.412C423.129,156.218,422.747,156.433,422.5,157.016Zm-1.441-1.69a.115.115,0,0,0-.04,0,.353.353,0,0,0,.008.064A.247.247,0,0,1,421.059,155.326Zm-6.734,4.444c0,.011-.01.014-.015.026.1.437.221.361.346.216C414.538,159.748,414.432,159.765,414.325,159.77Zm-1.049-.67c0-.036,0-.073,0-.11-.014.039-.033.078-.046.115A.2.2,0,0,1,413.276,159.1Zm-4.888,43.209c-.064-.581-.235.136-.31-.293C407.968,202.475,408.259,202.833,408.388,202.309ZM414.244,206c0,.008,0,.016.005.023a.253.253,0,0,1,.077-.062C414.3,205.968,414.272,205.989,414.244,206Zm.577.011c.005.009.006.019.012.028,0-.009.006-.011.008-.019A.113.113,0,0,0,414.821,206.01Zm91.206-1.7a.791.791,0,0,0,.025-.091.7.7,0,0,0-.113-.009l0,.015C505.967,204.252,506,204.278,506.027,204.306Zm2.451-.464c.006-.016.014-.026.02-.04a2.35,2.35,0,0,0-.211.123C508.349,204,508.413,203.919,508.478,203.843Zm6.2-.1c.109.333.218.679.348.307-.014-.06-.028-.09-.04-.133,0,.022.006.047.007.064-.131.064-.216-.053-.269-.268Zm1.091.8c.172-.751.31-.358.461-.468.061-.644-.3.1-.387-.443.139-.369.131-.478.073-.516a1.753,1.753,0,0,1-.1.29c-.031-.133-.055-.237-.078-.337a.165.165,0,0,1-.1-.123c.021-.042.038-.059.057-.093l0-.016a.834.834,0,0,1-.068.064c0,.019.01.025.014.045,0,.262-.166.506-.024.786-.1.25-.172-.216-.274.229C515.468,204.514,515.639,203.808,515.764,204.542Zm1.28-.884v0c-.249-.237-.248-.541-.448-.955-.046-.017-.091-.045-.138-.067,0,.225-.14.431-.117.661.04.13.09-.047.137-.113.057.355.01.487-.106.512a1.356,1.356,0,0,0,.346.681.218.218,0,0,0,.151-.056.6.6,0,0,0,0,.295,1.735,1.735,0,0,1,.128.35c.024-.039.043-.068.063-.1a1.724,1.724,0,0,1,.029-.671c-.02-.042-.04-.081-.06-.123A.42.42,0,0,0,517.044,203.658Zm.373-1.664c-.038.023-.077.047-.115.067a1.434,1.434,0,0,0-.013.177.489.489,0,0,0,.1.087.612.612,0,0,1-.086.133.877.877,0,0,0,.058.239.931.931,0,0,1,.078-.3.334.334,0,0,0,.037.042A1.7,1.7,0,0,1,517.418,201.994Zm1.252.24c.133.014.269.124.4-.022a1.133,1.133,0,0,0,.051-.282C518.956,201.625,518.81,201.847,518.669,202.235Zm1.927.144c0-.033.006-.065.014-.1.025-.1.049-.2.073-.3.042.143.1.2.174.222.031-.11.071-.2.172-.448l0-.008a1.371,1.371,0,0,1-.314-.369c-.137.763-.32.146-.468.63C520.368,202.292,520.478,202.207,520.6,202.379Zm.062.118a1.732,1.732,0,0,1,.069.2C520.745,202.511,520.746,202.379,520.658,202.5Zm1.313-.292c.013-.1.033-.189.051-.29a.34.34,0,0,0-.655.177c.057.15.109.209.162.228a.6.6,0,0,1,.041-.082c0,.039,0,.06,0,.093C521.706,202.324,521.832,202.076,521.971,202.205Zm.371.958a.33.33,0,0,0-.019.05.143.143,0,0,1,.023-.025Zm13.749-18.507c.055,0,.109.009.164.012a.5.5,0,0,0-.07-.078A.192.192,0,0,0,536.091,184.656Zm.865-19.34c.025-.284-.044-.44-.131-.507a1.423,1.423,0,0,1-.059.426C536.816,165.334,536.874,165.433,536.956,165.317Zm-.181-.535c-.167-.048-.364.208-.2.7.052-.377.093-.406.138-.344C536.736,165.025,536.758,164.906,536.775,164.782Zm-11.13-8.724a.142.142,0,1,0,.259.116c0-.022,0-.034,0-.059C525.834,155.96,525.727,155.957,525.645,156.058Zm-.132,1.033a2.461,2.461,0,0,1-.19.315.977.977,0,0,0,.02.129c0,.011-.008.009-.011.02l.054.015c-.014-.012-.028-.022-.043-.036.089-.236.162-.087.249-.352A.6.6,0,0,0,525.513,157.091Zm-2.326,1.3c.005.008.006.015.013.025.17-.25.315-.085.417-.4A.8.8,0,0,0,523.187,158.392Zm-1.465-1.3a.456.456,0,0,0-.12.175.9.9,0,0,0,.02.105c-.009.019-.017.026-.026.042.094.261.19.454.291.488.025-.047.052-.076.078-.116A4.309,4.309,0,0,0,521.722,157.091Zm-.949-.581c-.171-.04-.336-.251-.526.315.043-.016.084-.028.127-.042a.417.417,0,0,1,.04.105c.081-.189.206-.048.286-.054a.273.273,0,0,1,.018-.129.233.233,0,0,0,.028.09A.637.637,0,0,0,520.774,156.509Zm-18.618-1.867a.371.371,0,0,0-.038.265A.544.544,0,0,0,502.155,154.642Zm-.371.057c-.025-.026-.052-.053-.077-.074l-.005.029A.084.084,0,0,0,501.784,154.7Zm-71.592,2.456a1.083,1.083,0,0,1-.021.264c.115.14.221.006.328-.217A1.352,1.352,0,0,0,430.192,157.156Zm-1.333.124h0l0,.008Zm-2.046-.093a.716.716,0,0,0-.223.011,1.582,1.582,0,0,0,.132.589A2.819,2.819,0,0,0,426.814,157.187Zm-7.148-2.081a.4.4,0,0,1-.132.045,1.011,1.011,0,0,0,.169.062C419.689,155.177,419.677,155.148,419.665,155.106Zm-.74.744a1.289,1.289,0,0,1-.21.4,1.5,1.5,0,0,1,.286.234,2.2,2.2,0,0,1,.34-.836c.106.2.066.43.162.633q.126-.416.254-.831c-.087-.222-.356.226-.342-.264-.2.015-.391-.071-.588-.039C418.829,155.388,418.907,155.613,418.925,155.85Zm-.008.879a.594.594,0,0,1-.34-.228.689.689,0,0,0-.042.278.281.281,0,0,1,.176.144C418.8,156.926,418.865,156.852,418.918,156.729Zm.454,1.157c.142.127.274-.121.4-.473-.008-.015-.019-.023-.028-.042a.821.821,0,0,0,.028-.143c-.03-.11-.083-.116-.14-.113A6.674,6.674,0,0,0,419.371,157.886Zm.713.284c.078.1.122.056.154-.022-.005-.019-.012-.036-.016-.054.012,0,.023.008.035.009.058-.183.083-.467.243-.129a.652.652,0,0,1-.1.2,1.117,1.117,0,0,1,.128.146,1.562,1.562,0,0,0-.075-.659c-.1-.006-.219.028-.34.019A.877.877,0,0,1,420.084,158.17Zm.125.454a.157.157,0,0,1,.192.047q-.053-.163-.106-.326A1.124,1.124,0,0,0,420.21,158.624Zm-.611,1.487c-.024-.482-.245-.4-.376-.335a1.087,1.087,0,0,0,.042.355c.091-.1.187-.067.284.012A.19.19,0,0,0,419.6,160.111Zm-.783-.273a.484.484,0,0,0,.012-.164.194.194,0,0,0-.122-.071A2.515,2.515,0,0,1,418.816,159.838Zm-.583-.682a.12.12,0,0,0-.042-.025Zm-2.371.679c-.16-.017-.34.169-.359.589.172-.278.317.133.494-.251C415.952,160.068,415.906,159.956,415.862,159.835Zm-.608-.808a.853.853,0,0,1-.053.143l.031,0A.435.435,0,0,1,415.254,159.027Zm-1.713.016a2.909,2.909,0,0,0,.2.5.718.718,0,0,1,.816-.454.577.577,0,0,0,.023-.074C414.206,158.618,413.787,158.111,413.541,159.043Zm-6.026,42.277c-.193-.529-.454-.264-.716.028C406.991,201.9,407.284,201.253,407.515,201.32Zm9.184,3.939c.029-.1.055-.2.088-.309-.185-.017-.373-.059-.559-.071A1.233,1.233,0,0,1,416.7,205.258Zm.3-.13a.512.512,0,0,0-.012-.16c0-.011-.007-.014-.011-.023a1.06,1.06,0,0,0-.059.2A.38.38,0,0,1,417,205.128Zm7.712,3.039a.413.413,0,0,0,.062,0c-.082-.113-.146.338-.218.549C424.66,208.637,424.74,208.56,424.709,208.167Zm68.238.747c.062.05.1.031.12-.028-.041,0-.079,0-.118,0A.181.181,0,0,1,492.947,208.915Zm6.344,2.055c.16.305.31-.132.463-.276C499.6,210.487,499.441,210.439,499.291,210.969Zm2.363-1.264c.073.175.139-.092.206-.346l-.169-.011A1.694,1.694,0,0,0,501.654,209.706Zm19.553-1.856a.6.6,0,0,0-.1.124c-.02.064-.037.133-.055.191.02.29.118.409.235.381a.891.891,0,0,1-.006-.64A.126.126,0,0,0,521.207,207.849Zm-.651.6a.589.589,0,0,1-.185.036,1.878,1.878,0,0,0,.028.22A1.214,1.214,0,0,1,520.556,208.45Zm.051-.095c-.03-.048-.059-.091-.089-.143a.19.19,0,0,0-.128.048v.006a1.174,1.174,0,0,1,.169.18C520.576,208.417,520.592,208.387,520.608,208.355Zm-.36.9c.19.564.355.355.526.315.031-.667-.228-.073-.359-.378a.44.44,0,0,1-.04.105C520.332,209.279,520.291,209.267,520.248,209.251Zm.985-.118a2.463,2.463,0,0,1-.5-.575.317.317,0,0,0-.035.095C520.788,209.2,521.006,209.569,521.233,209.133Zm1.561-.944c.012-.037.024-.037.037-.053a.7.7,0,0,0-.112-.118A.659.659,0,0,0,522.794,208.189Zm.911-3.666a1.448,1.448,0,0,1-.016-.175c.084.2.1-.084.057-.309-.051-.054-.1-.112-.156-.171-.2.025-.64-.29-.744-.237a.451.451,0,0,1,.048-.09c-.167.16-.272.088-.389-.034a3.546,3.546,0,0,1-.034.78c-.02-.292-.05-.606-.09-.893a.642.642,0,0,0-.131-.107c.015-.029.034-.029.05-.051.01-.079.019-.146.021-.194-.013-.064-.028-.113-.042-.169-.06-.022-.167.042-.246-.219-.058-.04-.115-.087-.171-.129.021,0,.033-.05.046-.084a.7.7,0,0,0-.194.254c.01.022.012.037.019.057.075,0,.16-.017.214.206a.384.384,0,0,0-.129.14.1.1,0,0,0,.1.091c-.311.951-.592.276-1,.947-.247-.946-.664.347-1.056-.893a.276.276,0,0,1-.011.033,2.78,2.78,0,0,0,.133.549c-.157.149-.224-.085-.3-.347-.063,0-.127.014-.18.347a.973.973,0,0,1,.11.509c-.3-.816-.58.6-.98.011.089-.47.282-.391.422-.4-.089-.188-.182-.287-.281-.166-.062-.276.074-.234.169-.282-.419-.057-1.008.129-.824-.657-.01,0-.02.012-.03.016a.224.224,0,0,1-.181.121c-.109.088-.226.2-.351.284a1.227,1.227,0,0,0-.069.2c-.012-.059-.023-.1-.033-.143a.447.447,0,0,1-.318.056l-.01.028c.032.242-.054.532.136.71a.275.275,0,0,1-.083.1,2.446,2.446,0,0,0,.013.251,2.31,2.31,0,0,0,0-.256c.192.037.349,1.151.557.735.112-.247-.121-.546-.152-.811.16-.34.26.344.2.687.12.42.284-.5.4-.073.06-.254-.084-.541.116-.775a2.229,2.229,0,0,0,.132.47c0-.022,0-.047-.005-.07a4.059,4.059,0,0,1,.306.515c.214.15.425.02.449-.521.19.11.4-.324.564.484.281-1.014.593.285.74-.675.173,1.606.853-.692,1.187.588.383-.284.739.2,1.128-.206.138-.346-.225-.081.02-.521C523.115,204.691,523.409,204.643,523.705,204.523Zm-4.51-.7a.634.634,0,0,0,.026-.2C519.216,203.694,519.208,203.757,519.2,203.827Zm5.27,1.6c-.028-.031-.055-.065-.083-.093a.41.41,0,0,1-.023.16A.432.432,0,0,0,524.466,205.426Zm-.069-1.02.115-.147c-.058-.056-.116-.11-.172-.167-.111.209-.237.222-.367.144a.376.376,0,0,1,0,.065c-.03.009-.068.084-.1.157A.616.616,0,0,1,524.4,204.405Zm.977-.09a.54.54,0,0,1-.111.121.4.4,0,0,0,.15-.029Zm3.435.264a.487.487,0,0,0-.022.259c.074.047.156.135.2.123C528.98,204.714,528.916,204.475,528.809,204.579Zm.033.786a.055.055,0,0,0,.084-.016.137.137,0,0,1-.082-.05C528.841,205.322,528.846,205.342,528.841,205.365Zm7.233-7.594a.453.453,0,0,0,.021-.045l-.012-.011-.008.012C536.075,197.742,536.076,197.758,536.075,197.772Zm.459.3a.454.454,0,0,0,.015.143c.019,0,.026-.028.043-.037C536.571,198.144,536.552,198.11,536.534,198.073Zm.4-.681a1.127,1.127,0,0,1-.145-.158.386.386,0,0,0-.282-.071c.113.214.212.414.293.586A1.39,1.39,0,0,1,536.936,197.392Zm3.144-32.633c0,.022.01.025.013.051-.009-.023-.017-.025-.026-.04a.586.586,0,0,1-.25.1,3.477,3.477,0,0,1,.012.414,1.356,1.356,0,0,1,.535-.237c-.044-.118-.091-.256-.138-.411A1.6,1.6,0,0,1,540.079,164.759Zm-2.25-.171c0,.045.007.088.009.132a.507.507,0,0,0,.048-.093c.151.367.042.633.183.7.015-.116.031-.256.054-.371-.024-.206-.1-.423-.138-.634A.53.53,0,0,0,537.829,164.588Zm-.143.25a.48.48,0,0,1-.052.1c.028,0,.057,0,.084.006A1.125,1.125,0,0,0,537.686,164.838Zm-1.092-1.458v.022l.012,0A.2.2,0,0,0,536.594,163.38Zm-.627.068c-.127.292-.2.468-.279.6.2.257.255-.355.483.011.064-.22.033-.268-.019-.307C536.072,163.861,536,163.837,535.967,163.448Zm-.514-.138c.039.488.49.158.318-.371-.049.4-.1.378-.182-.1A1.43,1.43,0,0,1,535.452,163.31Zm-.142,1.135.013-.009Zm-.436-4.947a1.334,1.334,0,0,1-.195.305,1.067,1.067,0,0,0,.282.105A2.062,2.062,0,0,1,534.875,159.5Zm-.409.192.021.011a1.111,1.111,0,0,0,.2-.617C534.541,159.324,534.4,159.154,534.466,159.691Zm-2.6-.239c.005.079.01.157.011.254.047.022.1-.022.154-.092A1.069,1.069,0,0,1,531.868,159.452Zm-1.061-3.249c.043.1.1.059.152-.023A.12.12,0,0,1,530.807,156.2Zm-2.4,1.093a.69.69,0,0,0,.059.309l.016.008a1.011,1.011,0,0,0,.046-.226A.39.39,0,0,0,528.4,157.3Zm-1.477-.016c.012.022.024.036.037.056l.082-.039a.431.431,0,0,1-.026.124,2.409,2.409,0,0,0,.33.392c.315.059.613-.023.634-.577.086.281.151.05.227.085l-.03.115a.827.827,0,0,0,.121-.217.225.225,0,0,1-.051-.039c.044-.14.082-.178.118-.181.01-.04.021-.076.029-.124a.734.734,0,0,1-.516-.316c-.053.149-.076.278-.1.35a.421.421,0,0,1-.353.467c.111-.209.116-.468.227-.676-.006-.025-.009-.028-.017-.057A1.465,1.465,0,0,1,526.926,157.281Zm.306-.7c.106,0,.212-.031.324-.214a1.014,1.014,0,0,0-.055-.434,3.943,3.943,0,0,0-.048.519C527.388,156.371,527.31,156.467,527.231,156.579Zm-1.068.447c-.041.7-.333.375-.408.619a2.051,2.051,0,0,0,1.014-.214.859.859,0,0,0,.02.181l.02.009c.018-.056.035-.122.053-.183-.012-.012-.025-.025-.036-.034l.054-.028c.007-.028.016-.053.024-.084A.725.725,0,0,1,526.164,157.025Zm-1.258-.358c.106-.188.44-.188.4-.721C525.22,155.706,524.867,156.193,524.906,156.667Zm-.119-.859c.033.065.066.121.1.194a.741.741,0,0,0,.084-.312A.25.25,0,0,1,524.787,155.808Zm-.241,1.717c-.017.034-.033.078-.049.119.021-.019.044-.036.065-.053C524.556,157.564,524.55,157.559,524.545,157.525Zm-2.1-.8a.5.5,0,0,0,.059.1.764.764,0,0,1,.322-.166.579.579,0,0,0-.042-.161A.589.589,0,0,1,522.45,156.729Zm-1.582-1.653c.263.251.223.8.332,1.368.1-.647.2-.335.4-.729C521.284,155.532,521.084,154.054,520.868,155.076Zm-.4.726c.115.34.243.259.365.319-.074-.45.054-.868-.05-1.323C520.572,155.118,520.65,155.479,520.468,155.8Zm-.484.456c.138.076.283-.033.434-.33C520.327,155.211,519.95,156.028,519.984,156.258Zm-1.851.656c.086-.126.064.095.1.292a.482.482,0,0,1,.067.088.563.563,0,0,0,.107-.169,2.372,2.372,0,0,1,0-.569c.1.1.24.516.387.318C518.552,156.407,518.228,156.281,518.133,156.914Zm-.7.037a1.527,1.527,0,0,1,.066.374,2.038,2.038,0,0,0,.215-.1,1.558,1.558,0,0,0,.093-.22C517.688,156.669,517.563,156.653,517.43,156.951Zm-.442-2.56c.227.265.471-.02.706-.039C517.469,154.036,517.237,153.861,516.988,154.391Zm-1.454,1.661c.232.64.49.409.74.355-.045-.581-.306-.366-.387-1.234-.268.276.169.636.021.924C515.776,156.349,515.673,155.523,515.533,156.052Zm-.9.288c-.017.07-.028.141-.04.212.015.037.03.082.045.112s.035.042.054.068c.02-.015.048-.009.07-.022-.005-.036-.008-.076-.014-.109-.031.026-.062.022-.087-.043,0-.053.01-.091.014-.14C514.663,156.4,514.652,156.348,514.636,156.34Zm-5.529-2a2.322,2.322,0,0,1,0,.333.8.8,0,0,1,.134.332,2.213,2.213,0,0,1,.143-.344A1.217,1.217,0,0,0,509.107,154.337Zm-.685.189a.248.248,0,0,0,.054.068Zm-4.059-.2a.258.258,0,0,0-.161.06,1.341,1.341,0,0,0,.163.163l.009-.036A.638.638,0,0,1,504.362,154.324Zm-1.445.211c.15.1.3.186.448.265a1.047,1.047,0,0,0,0-.457c-.255.532-.411-.741-.55-.817C502.639,154.073,502.806,154.126,502.918,154.535Zm-.949-.783c.1.5.215.167.318.671a.788.788,0,0,1-.08.144,1.012,1.012,0,0,0,.356.323.763.763,0,0,0,.1-.451.323.323,0,0,0-.017-.039.326.326,0,0,1-.113-.164c.02.019.04.029.06.047C502.418,153.887,502.237,153.377,501.969,153.752Zm-.713.89c-.016.023-.031.023-.048.042l.057-.015Zm-1.075.1c0,.011,0,.022,0,.033a.7.7,0,0,0,.212.057C500.326,154.653,500.256,154.563,500.181,154.738Zm-.839-.234a1.031,1.031,0,0,1,.028-.129c.012.076.024.126.036.181.225-.295,0-1.182.184-1.022.065.309-.057.613.128.924a3.062,3.062,0,0,0,.061-1.182c-.251.15-.494-.443-.75.245C499.244,153.64,499.208,154.3,499.342,154.5Zm-5.317.937a.138.138,0,0,1-.019.031l.016,0A.216.216,0,0,0,494.025,155.441Zm-.342.13c.068-.023.136-.064.2-.081C493.819,155.422,493.753,155.321,493.684,155.571Zm-.678-1.174a3.83,3.83,0,0,1,.135,1.183c-.038-.093-.075-.1-.115-.073a.73.73,0,0,1,.262.222.316.316,0,0,0,.04-.016C493.27,154.892,493.313,153.971,493.006,154.4Zm-10.57-.481a.54.54,0,0,0,.7.346C482.9,153.892,482.666,153.464,482.435,153.916Zm-.257.588.173.022c-.046-.336-.145-.616-.2-.854A1.333,1.333,0,0,0,482.178,154.5Zm-.867-1.819c-.079-.214-.158-.426-.239-.639a1.183,1.183,0,0,0-.087.8c.062-.14.121-.409.184-.279C481.217,152.634,481.264,152.815,481.311,152.685Zm.568,1.783h0c.136-.741-.118-.785-.288-1.016a1.471,1.471,0,0,0-.135.668C481.686,153.7,481.786,153.825,481.879,154.468ZM424.534,151.1c.1.2.174,1,.3.434C424.909,151.144,424.629,150.567,424.534,151.1Zm-4.692.473c.137.72.308.547.483.214C420.324,151.2,420.019,151.155,419.842,151.575Zm-2.3,3.819a.743.743,0,0,1,.028.388c.1.1.207.225.308.329.136-.363.232-.96.372-.676a1.181,1.181,0,0,0-.067.8c.332.467.507-.574.607-1.068a.49.49,0,0,0-.255.144c-.138.344.227.081-.019.519C418.217,155.093,417.881,155.247,417.545,155.394Zm-.574.068-.078.1a10.072,10.072,0,0,0-.194,1.192.26.26,0,0,0,.066.105c.059-.11.126-.147.178-.029a.07.07,0,0,1,.088,0c-.1-.667.226-.547.313-.45a1.739,1.739,0,0,1-.015-.262,3.771,3.771,0,0,0-.314-.319c.14-.284.3-.24.474-.095a.341.341,0,0,0,.015-.143.561.561,0,0,1-.031-.136A.575.575,0,0,1,416.971,155.462Zm-1.25.594c-.082-.1-.187-.1-.256.059,0,.025,0,.037,0,.059a.654.654,0,0,0,.272-.037A.752.752,0,0,0,415.721,156.056Zm-.26-.657a1.34,1.34,0,0,1,.249-.011c-.045-.228-.095-.336-.124-.456-.069.2-.183.233-.185.354Zm.6.547c-.037.533.3.533.4.721C416.5,156.193,416.148,155.706,416.057,155.946Zm.426.056c.03-.073.064-.129.1-.194a.252.252,0,0,1-.181-.118A.751.751,0,0,0,416.483,156Zm.524-1.627a.484.484,0,0,0-.106.067c.028.033.055.067.083.095A.412.412,0,0,1,417.007,154.375Zm-2.219.5a.392.392,0,0,1-.086.172c.042.087.083.178.118.268a.316.316,0,0,1,.033-.074.734.734,0,0,0,.14.236c.077-.293.275-.119.136-.681.054.09.108.192.162.288.072-.223.154-.425.274-.4,0-.022,0-.028,0-.051.186-.566.1.354.157.558.112.33.033-.4.2-.493.091.357.189.524.29.585a.306.306,0,0,0,.059-.033.415.415,0,0,1,.03.059.5.5,0,0,0,.323-.212c.01.085.013.169.017.254a.631.631,0,0,1,.12-.09l-.009-.008c.084-.239.153-.09.237-.352a.388.388,0,0,0,.01-.1,1.909,1.909,0,0,1-.243-.245c-.2.194-.392.468-.579.459-.033-.337.085-.243.149-.368.1-.459-.2.067-.245-.574-.029.344-.079.47-.2.49-.167-1.535-.728.369-1.046-.73A1.2,1.2,0,0,0,414.787,154.878Zm-.3-.192c.031-.082.068-.161.1-.245-.1-.578-.221-.454-.335-.594a1.172,1.172,0,0,0,.024.7C414.323,154.506,414.4,154.563,414.488,154.686Zm-.026,2.608c.052.2.1.355.155.5l0,0v.006c.039.107.078.2.117.287.067-.047.141-.129.174-.082a.786.786,0,0,1-.1.237c.18.333.369.516.584.845l.009-.008c.169-.431-.207-.609-.174-.977.16-.023.334.183.5.493a1.4,1.4,0,0,0,.479-.144c.017.34.069.482.136.546,0-.026-.008-.047-.01-.074a.663.663,0,0,0,.049.105.248.248,0,0,0,.161,0,.433.433,0,0,1,.03-.406,2.014,2.014,0,0,0,.03.4.186.186,0,0,1,.208.071,1.637,1.637,0,0,0,.005-.251.794.794,0,0,1-.058-.251c.023.042.044.043.066.071a.554.554,0,0,1,.059-.217,1.257,1.257,0,0,0,.034.318c.091.043.18-.009.266-.088a.337.337,0,0,0,.007-.042c.005.011.012.014.017.023a1.52,1.52,0,0,1,.206-.177.984.984,0,0,1-.063.378.416.416,0,0,0,.25.132,1.6,1.6,0,0,0,.095-.292c.114.11.189.186.248.242.243-.082.487-.189.716.085a.589.589,0,0,0-.019.43c.026-.076.073-.1.127-.095a1.011,1.011,0,0,1-.058-.459c.441-.569.826.344,1.24.471a1.067,1.067,0,0,1,.2-.71c-.45-.192-1.05-.754-1.315.105-.187-.276-.078-.6-.265-.881-.042.141-.093.067-.136.157-.127.14.013.833-.169.557-.2-.671-1.028-.986-1.171.065-.248-.222.112-.547-.028-.786-.065.167-.148-.113-.227-.3a.3.3,0,0,1-.048.056c-.084.391-.192.147-.3-.18-.05.188.008.35-.074.541-.14-.392-.253-.062-.393-.457a1.015,1.015,0,0,0,.021-.127,2.508,2.508,0,0,1-.19-.316.657.657,0,0,0-.065.076c0,.014,0,.031,0,.045.082.209.152.1.235.323-.185.191-.342.185-.407.471.033-.274.008-.378-.041-.43a.467.467,0,0,1-.311-.1c0-.047.008-.073.01-.11a.906.906,0,0,1-.071-.341.856.856,0,0,1-.467.262c.044.15.171.312.21.262.064.7-.165-.144-.239.346a1.138,1.138,0,0,1-.087-.6A.6.6,0,0,1,414.462,157.294Zm-.651-.929c.113.183.219.219.324.214-.078-.11-.156-.208-.221-.129a3.853,3.853,0,0,0-.048-.519A.991.991,0,0,0,413.811,156.365Zm-.084.279c-.008.029-.01.033-.017.057.112.208.117.467.228.676a.421.421,0,0,1-.353-.465c-.021-.074-.044-.2-.1-.352a.737.737,0,0,1-.515.316,1.234,1.234,0,0,0,.219.568.092.092,0,0,1,.039.048c.048.054.1.11.156.18a1.283,1.283,0,0,1,.08-.29.846.846,0,0,1,0,.4,2.082,2.082,0,0,1,.2.4,5.342,5.342,0,0,0,.777-.9A1.475,1.475,0,0,1,413.727,156.644Zm-3.167-.44a.117.117,0,0,1-.151-.023C410.465,156.263,410.518,156.3,410.559,156.2Zm-4.78,6.638Zm-.692-.538c.026.048.05.082.074.118A.205.205,0,0,0,405.087,162.3Zm-3.453,1.912c.07.155.137.243.2.254a.6.6,0,0,0,.025-.087c-.1.143-.039-.211-.114-.428C401.7,164.143,401.667,164.207,401.634,164.216Zm-.317.019a1,1,0,0,0,.077.24.6.6,0,0,0,.156-.344C401.482,163.994,401.418,163.8,401.318,164.234Zm-.642.774c.042,0,.085.008.129.012,0-.011.008-.015.012-.025A1.116,1.116,0,0,0,400.675,165.008Zm.864.278a.715.715,0,0,0,0-.129.318.318,0,0,0-.174-.115.386.386,0,0,0-.017.135A1.327,1.327,0,0,1,401.54,165.286Zm3.174,13.833a.7.7,0,0,0,.4.251,1.5,1.5,0,0,0,0-.229C404.975,179.138,404.843,179.131,404.714,179.119Zm-1.124,7.555c.154.184.328-.039.476.245a2.069,2.069,0,0,1,.088-.4c-.029-.133-.062-.268-.091-.4-.185-.121-.4.127-.574-.15A2.777,2.777,0,0,0,403.59,186.674Zm2.324,16.091c-.039-.488-.49-.158-.318.371.05-.4.1-.378.183.1A1.416,1.416,0,0,1,405.914,202.765Zm.145-1.137c.037-.5-.23-.58-.4-.346-.044-.515.276-.085.157-.723-.282-.606-.752.982-.992-.127a2.839,2.839,0,0,0-.052,2.262c-.024-.552-.147-1.157.133-1.544a8.224,8.224,0,0,0,.163,1.434c.138-.315.272-.575.331.042C405.707,201.92,405.749,201.8,406.059,201.628Zm.214-.825c-.078-.588-.223-.388-.365-.2C406,200.983,406.124,201.05,406.272,200.8Zm.221,5.775a1.337,1.337,0,0,1,.193-.309,1.069,1.069,0,0,0-.281-.1A2.075,2.075,0,0,1,406.494,206.578Zm.407-.194-.021-.011a1.1,1.1,0,0,0-.2.616C406.825,206.752,406.967,206.919,406.9,206.384Zm2.6.239c0-.079-.01-.158-.011-.254-.048-.022-.1.02-.154.09A1.045,1.045,0,0,1,409.5,206.623Zm3.464,2.154a.641.641,0,0,0-.059-.307l-.015-.009a1.019,1.019,0,0,0-.048.228A.393.393,0,0,0,412.964,208.777Zm2.862.7c-.082.067-.17.006-.259-.11a.679.679,0,0,0-.1.589C415.6,210.264,415.878,210,415.826,209.479Zm.636-.8c-.012-.14-.041-.216-.121-.166A.308.308,0,0,1,416.462,208.682Zm3.485-.228a.434.434,0,0,1,.33-.057.945.945,0,0,0,.047-.316c-.023-.043-.046-.073-.068-.109-.011,0-.021.011-.033.009,0-.014.008-.029.012-.043-.143-.212-.279-.24-.393.357A.618.618,0,0,0,419.947,208.454Zm4.771.479a.833.833,0,0,1-.124,0C424.631,208.994,424.676,208.985,424.718,208.933Zm27.763-.276a1.275,1.275,0,0,1-.07-.191l-.046.031a2.639,2.639,0,0,0,.08.6A1.691,1.691,0,0,0,452.481,208.657Zm7.72.819c.106.651.243.2.363.338C460.636,209.282,460.31,209.093,460.2,209.476Zm6.348,1.044c.077-.375-.225-.851-.317-.445.031.485.29.2.173.557C466.492,210.8,466.455,210.29,466.55,210.52Zm3.11-2.143c-.19-.65-.394-.42-.6.042a2.381,2.381,0,0,1,.126.676C469.192,208.743,469.418,208.4,469.66,208.377Zm1.263,2.027c-.22-.172-.509-.333-.616.571C470.5,211.355,470.71,210.963,470.923,210.4Zm.3-1.014c-.241-.344-.486-.45-.746.161C470.724,209.324,470.961,209.941,471.218,209.389Zm.177.552c.048-.169.1-.194.141-.112.041-.169-.054-.358.008-.524-.075-.138-.154,0-.228-.166A1.193,1.193,0,0,0,471.4,209.941Zm.5.464c-.147-.506-.309-.028-.459-.327C471.4,210.713,471.765,210.74,471.9,210.4Zm.592.738a1.9,1.9,0,0,0-.084-.54.81.81,0,0,0,.041.4c-.125.1-.241-.4-.376.216C472.2,211.526,472.349,211.227,472.49,211.143Zm1.037-.92c0-.783-.3-.695-.464-.059C473.219,210.16,473.368,210.532,473.527,210.223Zm.917.9c-.045-.138-.089-.276-.134-.412a.819.819,0,0,0-.1.516c-.064.127-.122-.143-.182-.285a.889.889,0,0,0-.06.915,2.963,2.963,0,0,1,.053-.391c.086.231.035.443.129.675A1.981,1.981,0,0,1,474.444,211.126Zm.6-.06c.153-.333.048-.7.2-1.03-.259-.35-.519-.492-.789.039a2.932,2.932,0,0,1,.036.661C474.678,211.024,474.867,210.824,475.049,211.065Zm.554.327c-.243-.391-.494-.2-.743-.088.058.282.122.161.185.025a.647.647,0,0,1,.042.4C475.281,211.745,475.338,211.506,475.6,211.393Zm.833.354a14.644,14.644,0,0,0-.165-1.862,1.345,1.345,0,0,1-.335.889c.075.259.153.133.227.42-.14-.016-.282.288-.42.082C475.784,211.928,476.237,211.466,476.437,211.746Zm1.41-1.431c-.136-.231-.275-.343-.418.09.135.461.275.375.416.174A.329.329,0,0,1,477.847,210.315Zm1.531.276c-.244-.326-.492-.189-.74-.33-.192.558-.117,1.287.128,1.2.046-.214-.005-.439.053-.654.025.109.261.161.228.419C479.13,211.225,479.2,210.869,479.377,210.591Zm1.022.092c.1.7.219-.092.322.419C480.865,210.579,480.531,210.4,480.4,210.682Zm.911,2.707c-.046-.13-.094.05-.142.119-.063.13-.122-.14-.184-.278a1.178,1.178,0,0,0,.087.8C481.152,213.815,481.231,213.6,481.311,213.39Zm.571-1.8c-.093.659-.192.786-.421.361a1.477,1.477,0,0,0,.135.67C481.766,212.388,482.024,212.348,481.881,211.591Zm1.254.223a.536.536,0,0,0-.7.343C482.666,212.61,482.9,212.183,483.136,211.814Zm.331-.9c-.029-.851-.461-.284-.649-.305.229-1.982-.759.394-1.023-.076a.962.962,0,0,0,.274.813,2.251,2.251,0,0,0,.145-.648c.223.585-.283,1.118-.058,1.707a3.5,3.5,0,0,0,.2-1.566c.149.04.246,1.042.373.025C482.828,211.537,483.356,211.419,483.466,210.913Zm.56-.752q-.23-.5-.464-.031C483.717,210.43,483.87,210.749,484.027,210.161Zm8.6-.592c-.111-.388-.218-.254-.326.127C492.409,210.081,492.517,209.947,492.624,209.569Zm.882-.123c-.235-.5-.462.3-.694.65.109.347.22.667.328.4a3.835,3.835,0,0,1-.135,1.185C493.45,212.294,493.158,210.081,493.506,209.447Zm.513.132c-.156-.029-.313-.44-.463.264C493.713,210.154,493.865,209.721,494.019,209.578Zm.006,1.054c.051-.544-.279-.67-.375-.264C493.778,211.056,493.9,210.3,494.025,210.633Zm5.081.338c.03-.087.059-.175.089-.262-.129-.473-.246.112-.378-.516a2.116,2.116,0,0,0-.177.794C498.873,211.106,498.959,210.462,499.106,210.971Zm.612.644c-.185.313-.063.617-.128.926-.19.163.057-.78-.2-1.048-.208.073-.12.927-.362,1.061.257.687.5.095.75.243A3.063,3.063,0,0,0,499.718,211.614Zm.784-.682c-.13-.473-.248.016-.375-.25-.055.22.128.434.053.653C500.293,211.6,500.4,211.283,500.5,210.932Zm.888.1c-.28.036-.563-.288-.839.031.237.34.467.028.7.369C501.3,211.3,501.346,211.163,501.391,211.031Zm.611.369c.033-.544-.312-.383-.429-.64a1.918,1.918,0,0,1-.086.533C501.666,211.85,501.826,211.027,502,211.4Zm.657.236c0-.764-.377-.473-.523-.634-.088.5.023.343.151.65-.1.5-.216.169-.318.671C502.273,212.749,502.467,212.03,502.659,211.636Zm.6-.688c-.091.209-.175.8-.277.278-.086.733-.377.657-.167,1.324.138-.078.294-1.349.55-.817A1.149,1.149,0,0,0,503.256,210.948Zm10.109-1.575c-.273-.043-.546-.093-.819-.129C512.675,209.858,513.094,209.493,513.365,209.372Zm1.077.121c-.2-.478-.341.209-.438-.6-.122.889-.185.358-.4.7.079,0,.16.136.244.368C514.035,209.4,514.253,210.011,514.443,209.493Zm.34-.274a.724.724,0,0,0-.187.3c.012.071.023.141.04.212C514.714,209.7,514.766,209.478,514.783,209.219Zm1.49.45c-.25-.054-.508-.287-.74.355.14.527.243-.3.375-.045.147.287-.289.648-.021.924C515.967,210.033,516.228,210.248,516.273,209.668Zm1.42,2.055c-.235-.02-.479-.3-.706-.04C517.237,212.213,517.469,212.038,517.694,211.723Zm.109-2.65a1.511,1.511,0,0,0-.093-.222,2.374,2.374,0,0,0-.215-.1,1.526,1.526,0,0,1-.066.375C517.563,209.42,517.688,209.406,517.8,209.073Zm.993.127c-.147-.2-.282.22-.387.319a2.385,2.385,0,0,1,0-.571.575.575,0,0,0-.107-.167.617.617,0,0,1-.067.088c-.036.2-.015.417-.1.292C518.228,209.794,518.552,209.667,518.8,209.2Zm1.622.946q-.227-.444-.434-.33C519.95,210.045,520.327,210.862,520.418,210.146Zm.416-.192c-.123.06-.251-.02-.365.318.182.323.1.685.315,1C520.888,210.822,520.759,210.4,520.833,209.954Zm.766.406c-.2-.394-.3-.082-.4-.73-.109.571-.07,1.118-.332,1.369C521.084,212.019,521.284,210.541,521.6,210.36Zm.365-2.072a1.2,1.2,0,0,1-.078-.115c-.111.036-.215.265-.317.558a.425.425,0,0,0,.152.253A4.336,4.336,0,0,0,521.965,208.288Zm1.653-.226c-.1-.318-.247-.154-.417-.4-.006.009-.008.017-.013.023A.792.792,0,0,0,523.617,208.062Zm.928.488c.005-.034.011-.039.016-.068-.021-.016-.044-.033-.065-.051C524.512,208.473,524.529,208.516,524.545,208.55Zm.764,1.58c.037-.537-.3-.535-.4-.721C524.867,209.881,525.22,210.369,525.309,210.13Zm.323-.192c.043.644.448.264.624.281C526.036,209.8,525.835,209.878,525.632,209.938Zm-.289-1.4c.015-.015.029-.022.043-.037-.018.006-.035.009-.054.017,0,.009.007.009.011.02a1.248,1.248,0,0,0-.02.664c.088-.147.181-.172.269-.313C525.505,208.628,525.433,208.775,525.343,208.541Zm1.191-2.5a1.156,1.156,0,0,0,.094-.87c-.234.04-.463.206-.728-.555-.043.261-.094.245-.147.225a.9.9,0,0,1,.052.4c-.149.454-.122-.043-.136-.366a.112.112,0,0,0-.038.057c-.021-.05-.042-.1-.062-.15-.015.154-.038.35-.12.394-.206-.813-.451-.679-.7-.4-.01-.084-.013-.169-.019-.254a.709.709,0,0,1-.118.091l.009.008c-.084.237-.153.088-.239.352a.378.378,0,0,0-.01.1,2.146,2.146,0,0,1,.243.245c.195-.194.392-.467.58-.457.033.336-.084.242-.149.367-.1.457.205-.068.245.574.028-.344.079-.47.2-.49C525.654,206.842,526.217,204.939,526.534,206.038Zm1.458-.5a.381.381,0,0,0,0-.039c-.243-.237-.478-.288-.7-.009C527.522,205.62,527.763,205.435,527.991,205.539Zm2.974-2.462a1.194,1.194,0,0,0-.123-.371,1.055,1.055,0,0,1-.017.281C530.867,202.97,530.916,203.019,530.965,203.077Zm.987-1.8a1.785,1.785,0,0,0-.143-.437c-.136.5-.451.113-.748-.163a2.185,2.185,0,0,0-.2.177,1.4,1.4,0,0,0,.04-.313c-.118-.082-.227-.107-.308,0a.985.985,0,0,0,.082.357l-.036-.014a1.766,1.766,0,0,0,.326.859,2.607,2.607,0,0,0,.144-.543c0,.212-.02.431-.025.647a4.52,4.52,0,0,1,.444.217,2.287,2.287,0,0,0,.058-.7C531.791,201.434,531.708,200.965,531.952,201.278Zm3.623-.842c-.194.06-.154-.305-.211-.622a.821.821,0,0,1-.052.188.456.456,0,0,0-.3-.051C535.216,200.321,535.347,201.279,535.575,200.436Zm1.38.323c-.2-.285-.262.72-.385-.167C536.306,201.413,537.028,201.6,536.956,200.758Zm.478.143c.091.231.162.079.253.335a2.544,2.544,0,0,0,.107-.688C537.644,200.112,537.537,200.47,537.433,200.9Zm-.2-3a1.006,1.006,0,0,1,.077-.62c-.08.138-.157.183-.231.177,0,.042-.005.076,0,.127-.019-.037-.037-.048-.054-.079C537.084,197.753,537.156,197.851,537.231,197.9Zm1.76-2.159c.022-.074.043-.13.063-.191a1.435,1.435,0,0,1-.158-.408c-.032.017-.05.045-.071.29A.513.513,0,0,1,538.991,195.74Zm1.059-.105a1.019,1.019,0,0,0-.08-.251.33.33,0,0,1-.429-.006.47.47,0,0,0-.033.109c.106-.144.039.211.115.426C539.8,195.117,539.868,196.432,540.049,195.635Zm.339-.806a.481.481,0,0,0,.3.033A2.329,2.329,0,0,1,540.388,194.829Zm-.56-.245a.708.708,0,0,0,0,.129.315.315,0,0,0,.174.113.383.383,0,0,0,.018-.133A1.438,1.438,0,0,1,539.828,194.584Zm-1.61-10.5c.171.127.368.538.532.569.107-.321-.035-.488-.014-.609C538.562,184.069,538.389,184.081,538.218,184.087Zm-1.714.6a1.317,1.317,0,0,0,1.252-.56c-.061,1.1.332.566.553.369.021-.578-.235.146-.351-.212a.449.449,0,0,1,.091-.186A2.235,2.235,0,0,0,536.5,184.686Zm1.546-8.912a.477.477,0,0,1-.091-.189c.115-.357.372.368.351-.211-.221-.2-.614-.732-.553.369a1.314,1.314,0,0,0-1.234-.56l.109.107A2.28,2.28,0,0,0,538.049,175.774Zm.687.048c-.022-.121.12-.288.014-.611-.164.031-.36.443-.532.571C538.389,175.788,538.562,175.8,538.736,175.822Zm4.6-3.939c-.06-.273-.2-.135-.3.092,0,.04,0,.084,0,.127a.433.433,0,0,0-.028-.059,1.592,1.592,0,0,0-.106.4C543.034,172.535,543.294,172.354,543.338,171.884ZM405.372,206.725c.166.3.283-.346.432-.372C405.653,206.331,405.492,206.141,405.372,206.725Zm-1.913-.292c.069.157.137.315.206.473.063-.5.17-.2.24-.591Q403.642,205.632,403.459,206.434Zm.637.095c.171-.057.2.391.309.712a2.859,2.859,0,0,0-.158-1.281C404.2,206.15,404.147,206.338,404.1,206.528ZM520.56,151.421c-.293-.127-.606.029-.924.268C519.925,151.859,520.227,151.882,520.56,151.421Zm-1.405.329c-.055-.36-.137-.321-.206-.487-.1.155-.077.54-.165.329C518.689,152.158,519.037,151.992,519.154,151.75Zm5.533,2.726c-.129-.425-.345.366-.481.045C524.129,155.2,524.547,154.6,524.688,154.476Zm-30.6-2.059c-.093-.262-.185-.526-.277-.788-.057.194-.332.05-.235.4C493.855,151.556,493.848,152.617,494.09,152.417Zm-2.987-.223c-.2.095-.4-.454-.608.143a1.8,1.8,0,0,1,.093.526C490.828,151.536,491.016,153.434,491.1,152.194Zm3.458-.566c-.154-.144-.313.282-.47.527C494.215,152.718,494.586,151.9,494.561,151.628Zm-2.715,1.34a1.368,1.368,0,0,0,0-1.054c-.109.507-.216-.1-.328.4C491.631,152.626,491.739,152.473,491.846,152.967ZM490.4,152.6c-.061-.174-.124-.347-.186-.523-.062.178-.124.357-.187.533C490.152,152.926,490.276,152.924,490.4,152.6Zm4.151.34c.1-.172.048.194.137.392.1-.217.053-.439.145-.654-.046-.133-.092-.265-.138-.4A1.417,1.417,0,0,0,494.553,152.943Zm1.309-.26c-.208.707-.406.088-.611.392.154.44.312.02.464.526C495.786,153.02,495.944,153.267,495.862,152.682Zm.6.926c-.12-.479-.25.1-.369-.53q-.071.2-.142.4C496.186,153.561,496.321,153.723,496.461,153.608Zm-1.444-.4a1.09,1.09,0,0,0-.04-.921,1.929,1.929,0,0,0-.145.656C494.894,153.129,494.955,153.169,495.017,153.206Zm1.594-.782c-.186-.313-.136-.16-.135-.659-.048.073-.095.042-.14-.132-.048.132-.1.262-.143.392a3.221,3.221,0,0,1,.272,1.054C496.565,152.864,496.519,152.645,496.611,152.425Zm-17.536.453c-.21-.789-.4.186-.613-.6a1.484,1.484,0,0,0-.132.671C478.57,152.194,478.832,153.493,479.075,152.877Zm9.88.164a2.641,2.641,0,0,0,.559-.284c-.091-.558-.186-.1-.279-.253-.048-.172-.022-.53-.14-.389C489.247,152.417,488.8,152.738,488.955,153.042Zm-14.779-.561c-.2.367-.4.095-.6.2C473.59,153.085,474.18,152.98,474.177,152.48Zm11.329-.076c.257.171.509-.667.7.62.153-.574.311.04.466-.022a2.908,2.908,0,0,1-.048-.921c.07.216.167-.3.045-.132-.128.022-.331-.22-.326-.642-.1.225-.05.443-.14.667-.265-.578-.529-.009-.795-.355C485.618,151.874,485.3,152.153,485.505,152.4Zm-.284-1.036c.077-.14.156-.073.233-.409-.125-.364-.172-.036-.189-.518C485.14,150.759,485.259,151.06,485.221,151.369Zm1.355.062c.076-.282.154-.15.231-.408-.2-.412-.2-.095,0-.526-.094-.223-.189-.344-.281-.25C486.692,150.635,486.445,151.042,486.576,151.431Zm2.334-.1c-.122-.259.083-.529,0-.791-.178.105-.3.177-.327.668C488.691,150.973,488.8,151.57,488.91,151.333Zm-1.073,2.013a2.357,2.357,0,0,0,.326-1.462c-.244-.045-.218.366-.419.94-.31-.231-.239-.295-.281-1.04-.12.679-.646.792-.464,1.6C487.277,153.347,487.556,152.6,487.837,153.346Zm-.048-1.706c-.174-.768-.589-.212-.606.155C487.386,151.5,487.586,151.829,487.789,151.64Zm39.038,57.031c.071.034.144.065.218.1C527.019,208.45,526.9,208.608,526.827,208.671Zm1.815.434c.5-.127,1,.292,1.609.085-.245-.757-.782.414-.864-.716-.2.541-.38.481-.545.147C528.785,208.981,528.558,208.606,528.641,209.105Zm-1.815-.434-.057-.028C526.773,208.7,526.794,208.7,526.827,208.671Zm16.93-12.891c.116.381.252.408.414-.009C544.063,195.286,543.891,195.837,543.756,195.781Zm-34.617-45c-.31,1.166-.934.493-1.372.549C507.977,151.961,509.041,152.164,509.139,150.783Zm33.181,45.234c.2.2.181.63.346.366-.083-.245-.024-.448-.1-.692C542.485,195.8,542.414,195.711,542.32,196.016Zm1.568-1.655c-.1-.685-.27-.112-.415.008C543.582,194.84,543.76,194.174,543.888,194.362Zm-.851-.389c-.147.459-.235.093-.264.588.055.436.384.107.339-.3C543.04,194.374,543.036,194.176,543.036,193.973Zm-11.21-38.051a.763.763,0,0,1,.117-.5c.023.079.089.062.053-.123-.131.087-.253.011-.387.181C531.681,155.669,531.742,156.044,531.826,155.921Zm-14.286,47.788a.568.568,0,0,1-.367-.085c-.125.5.331.183.208.761.078-.18.326-.713.55-.336a.318.318,0,0,0-.247-.307c.18-.22.33.406.514.079-.183-.344-.377-.3-.566-.474C517.684,203.581,517.564,203.551,517.541,203.709Zm7.651-49.63c-.144-.4-.308-.2-.46-.347C524.868,154.3,525.019,154.453,525.191,154.079Zm-11.139,1.272c.043.136.087.271.129.408.253-.276-.021-.617.165-.9-.113-.383-.171-.064-.173-.546-.054.473-.3.122-.2.5C514.242,154.644,514.151,155.014,514.053,155.351Zm25.227,41.793c.092-.146.12.233.113.428.07-.158.14-.313.21-.471C539.552,196.519,539.232,196.751,539.279,197.144Zm-42.3-44.187c.063-.175.127-.349.191-.524-.014-.119-.055-.834-.182-.529.139.957-.109-.194-.283.259C496.8,152.726,496.805,152.474,496.98,152.957Zm11.46-.124c.227.381.561-.1.639.842.23-.526.443-.281.677-1-.181-.268-.368-.31-.566.212C509.156,152.142,508.486,152.882,508.44,152.833Zm-6.925-.152c-.3-.282-.812-1.261-.985.358A.84.84,0,0,0,501.515,152.681ZM531.3,208.764c-.025.541.2.713.343.344C531.541,208.761,531.418,208.836,531.3,208.764Zm-32.771-56.7c-.019.343-.069.479-.192.521.069.575.221.965.414.664-.052-.312-.329-.164-.227-.661.25-.535.211.63.419.143-.254-.487-.034-.966-.032-1.45-.15.385-.4.653-.655-.014-.113.53-.222.381-.331.389C498.12,152.4,498.335,151.39,498.53,152.063Zm4.534.288c-.236.047-.366-.113-.27-.8-.272-.025.029.561-.152.913-.171-.684-.534.4-.555-.55-.088.887-.271.039-.479.771A1.19,1.19,0,0,0,503.064,152.352Zm.605.163c-.136-.3-.27-.667-.412-.678C503.267,152.355,503.427,153.284,503.669,152.515Zm37.891,44.741c-.142.222-.045.515-.225.727.228.265.461.465.72.206C541.877,197.707,541.579,198.377,541.561,197.255Zm-38.384-46.212c-.217.288-.17.15-.322-.409-.063.495-.335.147-.244.647C502.772,151.139,503.163,151.764,503.177,151.043Zm33.784,56.2c.109-.321.14-.769.309-.712-.05-.191-.1-.378-.149-.569A2.854,2.854,0,0,0,536.961,207.24ZM505.034,152.2a1.075,1.075,0,0,0,.564-.226C505.443,151.817,505.044,151.66,505.034,152.2Zm34.815,44.575c.058.671.389.583.361.1C540.063,197.314,540,196.207,539.849,196.772Zm-4.859,9.3a1.69,1.69,0,0,0-.115.5c-.174-.4-.268-.13-.228-.85-.161.5-.285.292-.421.292.219.394.528.383.469,1.436a1.259,1.259,0,0,0,.448-.813c.083.141.134.871.24.591-.044-.313.07-.068.14-.1a3.073,3.073,0,0,0-.176-.971C535.211,206.452,535.093,206.421,534.99,206.075ZM507.815,153.7c.26-.537.5.14.748.062-.128-.636-.277-.172-.414-.43a1.361,1.361,0,0,0,.155-.647c-.3-.016-.6.336-.887-.2-.22.9-.41.222-.611.084a2.765,2.765,0,0,1-.059.656C507.071,153.974,507.8,152.22,507.815,153.7Zm29.647,52.613c.069.391.176.091.24.591.068-.158.137-.316.206-.473Q537.726,205.631,537.462,206.316Zm-1.9.037c.149.026.266.67.432.372C535.875,206.141,535.714,206.331,535.562,206.353ZM397.48,165.507c.1.685.269.11.413-.008C397.784,165.03,397.607,165.7,397.48,165.507Zm.851.389c.147-.461.234-.093.264-.588-.057-.437-.385-.107-.339.3C398.327,165.5,398.331,165.7,398.331,165.9Zm.716-2.045c-.2-.2-.181-.63-.346-.366.082.245.024.45.1.693C398.883,164.064,398.953,164.16,399.047,163.851Zm-1.436.239c-.116-.383-.253-.411-.415.008C397.3,164.583,397.475,164.033,397.611,164.09Zm4.476-1.365c-.091.146-.118-.233-.112-.428-.07.157-.141.313-.21.471C401.815,163.349,402.136,163.118,402.087,162.726Zm7.635-11.965c.1.347.228.273.343.344C410.092,150.564,409.872,150.392,409.722,150.761Zm-3.346,3.033a1.684,1.684,0,0,0,.117-.5c.172.4.268.129.227.848.16-.5.285-.292.421-.293-.219-.394-.529-.383-.469-1.434a1.25,1.25,0,0,0-.447.811c-.083-.141-.136-.87-.241-.589.043.312-.07.067-.14.1a3.012,3.012,0,0,0,.176.969C406.155,153.416,406.275,153.448,406.377,153.794Zm-.572-.278c-.149-.026-.266-.67-.432-.372C405.492,153.727,405.653,153.538,405.8,153.516Zm12.285-2.769c.311.045.626-.011.935.033C418.755,150.427,418.244,150.263,418.089,150.747Zm-13.684,1.882c-.108.321-.138.769-.309.71l.151.569A2.855,2.855,0,0,0,404.405,152.629Zm-4.6,9.985c.141-.223.044-.516.225-.729-.23-.265-.461-.465-.722-.206C399.491,162.161,399.789,161.491,399.807,162.614Zm1.712.484c-.059-.671-.388-.583-.36-.1C401.3,162.555,401.364,163.662,401.518,163.1Zm2.387-9.544c-.07-.391-.177-.091-.24-.591l-.206.473Q403.642,154.238,403.905,153.554Zm12.047-2.934c-.146-.453-.318-.245-.494.033C415.614,150.879,415.787,150.671,415.953,150.62Zm-13.841,36.594c.118-.171.183.642.33-.047C402.377,186.8,402.067,186.737,402.112,187.213Zm.094-.9c.138.352.313-.037.476-.136C402.56,185.5,402.374,186.061,402.206,186.309Zm.7.978a5.779,5.779,0,0,0-.091-.947,2.31,2.31,0,0,0-.146,1.02C402.75,187.223,402.82,187.393,402.9,187.288Zm9.823-36.525c-.5.129-1-.29-1.609-.084.244.757.782-.414.864.716.2-.541.381-.479.544-.147C412.581,150.886,412.808,151.262,412.726,150.762Zm1.815.436c-.073-.036-.145-.065-.217-.105C414.348,151.418,414.467,151.262,414.541,151.2Zm0,0,.055.026C414.595,151.167,414.572,151.17,414.541,151.2ZM505.6,214.1a1.078,1.078,0,0,0-.564-.228C505.044,214.415,505.443,214.258,505.6,214.1Zm2.706-.719a1.36,1.36,0,0,0-.155-.645c.137-.257.286.206.414-.43-.252-.078-.488.6-.748.06-.014,1.484-.744-.27-1.068.473a2.759,2.759,0,0,1,.059.654c.2-.136.391-.819.611.084C507.7,213.049,508.006,213.4,508.3,213.385Zm-1.34-1.475c.051-.259-.126-.112-.054-.394-.492,1.306-1.023.369-1.526,1.023a1.1,1.1,0,0,0,1.313.174,1,1,0,0,0-.1-.519C506.719,212.143,506.837,211.805,506.964,211.911Zm-3.707,2.326c.141-.009.276-.378.412-.676C503.427,212.79,503.267,213.72,503.257,214.237Zm-8.425-1.1a1.92,1.92,0,0,0,.145.654,1.087,1.087,0,0,0,.04-.92C494.955,212.906,494.894,212.946,494.832,213.134Zm7.779,1.659c-.091.5.181.152.244.648.152-.56.1-.7.322-.411C503.163,214.311,502.772,214.934,502.611,214.793Zm-6.15-2.326c-.14-.116-.275.047-.512.133.047.133.095.264.142.4C496.211,212.363,496.341,212.946,496.461,212.467Zm11.306,2.275c.438.057,1.062-.614,1.372.552C509.041,213.911,507.977,214.114,507.767,214.742Zm-12.053-2.269c-.152.506-.31.087-.464.527.205.3.4-.315.611.391C495.944,212.808,495.786,213.053,495.715,212.473Zm.479,1.575.143.391c.045-.174.091-.2.14-.13,0-.5-.051-.346.135-.659-.092-.22-.046-.439-.146-.656A3.231,3.231,0,0,1,496.193,214.049Zm.513-.136c.174.451.422-.7.283.257.127.305.168-.409.182-.527-.064-.175-.128-.349-.191-.524C496.805,213.6,496.8,213.35,496.706,213.912Zm1.819-.425c-.1-.5.175-.35.227-.662-.192-.3-.344.088-.414.664.124.043.174.18.192.523-.2.673-.41-.332-.6.408.109.008.218-.143.331.389.258-.668.505-.4.655-.016,0-.484-.223-.961.032-1.448C498.736,212.858,498.775,214.021,498.525,213.488Zm2.005-.453c.173,1.619.683.642.985.36A.839.839,0,0,0,500.53,213.035Zm2.263,1.487c-.1-.687.034-.845.27-.8a1.188,1.188,0,0,0-1.456-.333c.208.732.391-.116.479.771.021-.954.384.133.555-.55C502.822,213.962,502.522,214.548,502.793,214.522Zm25.5-11.155c-.123-.326-.225-.157-.34-.33-.079.155,0,.279.071.4-.093.2-.3-.009-.2.473.152-.107.358.507.481.036a.425.425,0,0,1-.153-.181C528.2,203.675,528.243,203.487,528.289,203.367Zm3.012-46.056c.117-.071.24,0,.343-.344C531.5,156.6,531.276,156.77,531.3,157.311Zm4.693,2.038c-.166-.3-.283.347-.432.374C535.714,159.744,535.875,159.933,535.994,159.348Zm-9.224-1.918.057-.026C526.794,157.376,526.773,157.373,526.77,157.43Zm10.5,2.115c-.169.059-.2-.391-.309-.71a2.85,2.85,0,0,0,.16,1.279C537.169,159.925,537.219,159.736,537.27,159.545Zm.638.1c-.069-.158-.138-.315-.206-.473-.064.5-.171.2-.24.591Q537.725,160.445,537.908,159.641ZM509.079,212.4c-.078.938-.413.461-.639.842.046-.051.716.688.75-.06.2.524.386.482.566.212C509.523,212.68,509.309,212.925,509.079,212.4Zm21.393-1.825c.176-.171.53-.073.539-.644C530.811,209.648,530.638,209.988,530.473,210.575Zm10.443-9.8c-.035.264.084.095.161.355-.029-.476.143-.271.237-.861C541,200.093,541.038,200.551,540.916,200.777Zm-26.734,9.54c-.042.135-.086.27-.129.406.1.338.19.707-.081.54-.1.38.147.031.2.5,0-.484.06-.163.173-.546C514.161,210.932,514.435,210.593,514.182,210.316Zm10.549,2.025c.152-.146.317.057.46-.346C525.019,211.622,524.868,211.773,524.731,212.342Zm15.429-10.7c.187-.33.393-.312.557-1.075C540.567,200.454,540.378,200.884,540.16,201.644Zm-8.216,9.009a.761.761,0,0,1-.117-.5c-.084-.121-.145.253-.217.442.135.172.257.1.387.181C532.033,210.593,531.966,210.575,531.943,210.653Zm-72.393.4c.18.233.372.073.555.115C460.119,210.651,459.722,210.569,459.55,211.056Zm-33.172-.868c.2.1.3-.189.326-.671C426.6,209.233,426.386,209.994,426.379,210.188Zm24.814-.281a.316.316,0,0,0-.01.261c.028.1.055.189.083.282.137-.357.245.107.369.1C451.69,209.848,451.306,210.285,451.193,209.907Zm-27.1.409c.041.1.092.034.129.189.037-.076.073-.149.109-.223-.223-.406.236-.526.014-.93C424.084,209.6,424.361,210.07,424.1,210.316Zm-1.884,4.008c.057.36.138.321.207.487.1-.155.078-.54.165-.33C422.678,213.917,422.33,214.081,422.212,214.325Zm30.544-3.759c-.026.408.342.814.505.256C453.1,210.481,452.92,210.743,452.755,210.566ZM416.681,211.6c.128.425.344-.366.48-.047C417.237,210.869,416.82,211.469,416.681,211.6Zm47.822.811c-.079.363.225.737.322.188C464.729,212.044,464.605,212.629,464.5,212.41Zm-7.385-1.084c.217.07.629-.009.724-.766C457.611,210.884,457.2,210.82,457.117,211.326Zm37.436,1.8a1.419,1.419,0,0,0,.143.661l.138-.4c-.092-.217-.045-.439-.145-.654C494.6,212.937,494.652,213.3,494.553,213.131Zm-76.117-3.41c.3.346.389-.07.683-.228C418.925,209.107,418.675,209.488,418.436,209.721Zm-4.8-.229c.2-.216.167-.543.3-.794C413.792,208.7,413.445,208.888,413.637,209.492Zm3.4,1.2c-.249-.292-.482-.814-.813.025C416.526,210.228,416.724,211.205,417.033,210.69ZM414.412,210a1.708,1.708,0,0,0-.089-.712c-.131.048-.292.484-.409.338-.033.211.025.462-.1.631.083.164.175.217.258.388C414.228,210.351,414.186,209.5,414.412,210Zm3.584-.743c.093-1.436-.692.033-.959-.575-.071.194.091.49,0,.673C417.34,209.527,417.741,208.364,418,209.254Zm-4.69.212c-.079.474-.027.521-.243.687.122.471.329-.143.48-.036C413.673,209.538,413.338,209.971,413.305,209.467Zm3.709.811c.29.591.684-.226,1.035-.464C417.754,209.287,417.371,209.978,417.015,210.278Zm3.792,4.374c.294.127.607-.028.925-.267C421.441,214.215,421.141,214.193,420.807,214.652Zm69.781-1.439a1.832,1.832,0,0,1-.093.527c.2.6.4.045.608.141C491.016,212.641,490.828,214.539,490.588,213.213Zm-21.912-2.087c.2.239.391.65.59.749.076-.34.067-.695.113-1.037C469.156,210.383,468.918,210.687,468.676,211.126Zm21.353,2.335c.063.177.125.354.187.533.062-.177.125-.349.186-.524C490.276,213.15,490.152,213.15,490.029,213.461Zm-1.119,1.281c-.109-.237-.219.36-.327.121.024.495.149.564.327.67C488.993,215.271,488.788,215,488.91,214.742Zm2.611-.982c.112.5.219-.105.328.4a1.368,1.368,0,0,0,0-1.054C491.739,213.6,491.631,213.449,491.521,213.76Zm2.57.16c.157.245.315.67.47.529C494.586,214.175,494.215,213.357,494.091,213.92Zm-6.254-1.192c-.281.746-.559,0-.839-.036-.182.806.344.921.464,1.6.043-.744-.029-.808.281-1.039.2.572.175.985.419.94A2.364,2.364,0,0,0,487.837,212.728Zm5.742,1.321c-.1.347.178.2.235.4.092-.262.183-.526.277-.788C493.848,213.458,493.855,214.519,493.578,214.049Zm-4.482-.091c.117.143.092-.216.14-.388.093-.147.187.305.279-.254a2.623,2.623,0,0,0-.559-.281C488.8,213.337,489.247,213.658,489.1,213.957Zm-15.523-.569c.2.112.406-.16.6.206C474.18,213.1,473.59,212.988,473.573,213.388Zm-4.013-2.261c-.08-.281.3-.24.014-.789-.075.34-.066.695-.112,1.039.121.188.249.037.376-.206C469.754,210.712,469.652,211.16,469.56,211.127Zm17.622,3.151c.017.371.432.924.606.157C487.586,214.246,487.386,214.573,487.183,214.278Zm-8.852-1.154a1.487,1.487,0,0,0,.132.673c.212-.788.4.189.613-.6C478.832,212.582,478.57,213.881,478.33,213.125Zm8.246,1.52c-.131.389.116.794-.05,1.182.093.095.187-.026.281-.248-.2-.431-.2-.115,0-.527C486.73,214.793,486.652,214.927,486.576,214.644Zm-1.355.062c.038.309-.08.608.044.926.016-.481.064-.154.189-.518C485.377,214.779,485.3,214.846,485.221,214.706Zm1.4-.715a2.9,2.9,0,0,1,.048-.92c-.154-.062-.313.55-.466-.023-.191,1.287-.443.45-.7.622-.21.251.113.53-.1.785.266-.346.53.223.795-.355.09.225.04.442.14.667-.005-.423.2-.664.326-.642C486.791,214.291,486.693,213.778,486.624,213.992Z" transform="translate(-394.793 -150.215)" fill="#86bb98"/>
</svg>
