<svg xmlns="http://www.w3.org/2000/svg" width="79.652" height="29.802" viewBox="0 0 79.652 29.802">
  <g id="Group_6" data-name="Group 6" transform="translate(-440.386 -195.417)">
    <g id="Group_1" data-name="Group 1">
      <path id="Path_1" data-name="Path 1" d="M456.287,195.582c.275.264-.018.389-.018.77s.017.383.017.765-.035.384-.035.767.063.385.063.769.246.507-.033.771c-.3.279-.408.041-.814.041s-.406-.057-.811-.057-.4.008-.81.008-.407-.009-.815-.009-.407-.007-.815-.007-.409.058-.818.058-.544-.341-.837-.056.034.419.034.819-.012.4-.012.8-.032.4-.032.8.016.4.016.8.036.4.036.8-.031.4-.031.8.047.4.047.8-.07.4-.07.8-.027.4-.027.8.046.4.046.8.052.4.052.8-.066.4-.066.8-.012.4-.012.8.068.4.068.795-.017.4-.017.795.036.4.036.8-.025.4-.025.8-.036.4-.036.8-.046.4-.046.8.032.4.032.8.014.4.014.8-.019.4-.019.8,0,.4,0,.8,0,.4,0,.8-.014.4-.014.805.025.4.025.8.051.4.051.8-.035.4-.035.8-.044.4-.044.806.051.4.051.807.024.4.024.81.279.545-.017.821c-.317.3-.445-.037-.879-.037s-.435-.018-.871-.018-.437.079-.873.079-.438-.005-.875-.005-.528.237-.851-.058c-.3-.269-.057-.372-.057-.772s-.009-.4-.009-.8,0-.4,0-.8.034-.4.034-.8-.047-.4-.047-.8.062-.4.062-.8-.032-.4-.032-.8.047-.4.047-.8,0-.4,0-.8-.012-.4-.012-.8.046-.4.046-.8-.015-.4-.015-.8-.081-.4-.081-.8.043-.4.043-.8-.028-.4-.028-.795.066-.4.066-.8-.073-.4-.073-.8.045-.4.045-.8-.04-.4-.04-.8.079-.4.079-.8-.107-.4-.107-.8.067-.4.067-.8.039-.4.039-.8-.014-.4-.014-.8,0-.4,0-.8-.042-.4-.042-.8.023-.4.023-.8-.064-.4-.064-.8.032-.4.032-.806.018-.4.018-.807v-.81c0-.4.294-.54.007-.826s-.424.076-.83.076-.407-.053-.813-.053-.406-.038-.811-.038-.408.083-.816.083-.409-.039-.817-.039-.41-.063-.819-.063-.49.3-.79.02c-.279-.259-.071-.35-.071-.731s0-.382,0-.765.065-.383.065-.767-.038-.384-.038-.769-.262-.5.013-.767.391-.018.784-.018.391.035.781.035.391-.063.782-.063.391.059.783.059.393-.011.787-.011.394-.039.789-.039.393.009.786.009.393-.023.786-.023.393,0,.787,0,.395.046.79.046.394.032.788.032.395-.083.789-.083.4.017.791.017.4-.012.79-.012.4,0,.789,0,.394.086.788.086.4-.044.793-.044.4-.023.793-.023.4.087.789,0C455.9,195.468,456,195.307,456.287,195.582Z" fill="#4b4b4b"/>
    </g>
    <g id="Group_2" data-name="Group 2">
      <path id="Path_2" data-name="Path 2" d="M470.92,215.189c.067-.271.2-.212.414-.388s.471-.281.669-.463.323-.44.507-.638.377-.383.546-.594.378-.39.532-.612.327-.435.464-.668.237-.488.358-.731.2-.51.3-.762.2-.5.287-.765.15-.523.212-.789.1-.532.146-.8.07-.537.09-.811.006-.541.006-.816.046-.562.024-.839,0-.568-.042-.843-.2-.531-.27-.8-.093-.554-.182-.819-.184-.529-.294-.787-.185-.528-.311-.773-.355-.436-.5-.672-.206-.527-.367-.752-.418-.375-.6-.588-.315-.456-.508-.655-.412-.378-.623-.563-.427-.358-.652-.526-.458-.315-.7-.465-.458-.322-.707-.453-.515-.217-.773-.329c-.225-.1-.455-.179-.687-.261s-.449-.206-.687-.272-.47-.153-.713-.2-.495-.014-.74-.045-.486-.048-.733-.063-.487-.068-.736-.068c-.423,0-.423.054-.846.054s-.423-.02-.846-.02-.425-.033-.849-.033-.426-.009-.851-.009-.427.031-.854.031-.576-.335-.889-.044c-.29.27-.016.435-.016.832s.072.4.072.792-.049.4-.049.793-.026.4-.026.793.036.4.036.794.006.4.006.794-.038.4-.038.8.068.4.068.8-.043.4-.043.8,0,.4,0,.795-.016.4-.016.795.082.4.082.795-.028.4-.028.8.018.4.018.8-.008.4-.008.8-.073.4-.073.8.1.4.1.8.013.4.013.8-.017.4-.017.79-.08.4-.08.791-.01.4-.01.793.013.4.013.8.045.4.045.8,0,.4,0,.8-.046.4-.046.795,0,.4,0,.8.082.4.082.8.007.4.007.8-.079.4-.079.8.028.4.028.8-.049.4-.049.8.014.4.014.8.072.4.072.8,0,.4,0,.8-.047.4-.047.8,0,.4,0,.805-.246.49.049.764c.317.3.395.021.829.021s.436.073.872.073.436-.012.873-.012.437-.027.875-.027.518.244.843-.05c.294-.266.016-.361.016-.757s.074-.4.074-.793-.112-.4-.112-.8.074-.4.074-.795-.071-.4-.071-.794.017-.4.017-.792-.016-.4-.016-.8.1-.4.1-.8-.072-.4-.072-.8-.228-.487.043-.782c.25-.271.348.014.716.014a9.044,9.044,0,0,0,1.083-.079c.363-.039.7-.114,1.047-.173.285-.049.314-.215.568-.077s.137.249.25.514c.165.385.1.412.268.8s.178.38.343.766.227.36.392.746.159.389.324.775.155.39.32.776.175.381.34.766.169.386.334.773.1.414.27.8.224.364.391.753-.041.549.312.783.418,0,.839,0,.423-.05.846-.05.424.035.847.035h.85c.425,0,.578.344.836.006.235-.31-.086-.369-.239-.727s-.2-.338-.353-.7-.149-.362-.3-.722-.2-.337-.357-.7-.148-.361-.3-.72-.131-.371-.284-.731-.1-.385-.249-.745-.248-.319-.4-.679-.069-.394-.222-.753-.208-.338-.362-.7-.136-.369-.29-.731-.135-.371-.289-.733a3.4,3.4,0,0,0-.345-.706C470.97,215.465,470.852,215.458,470.92,215.189Zm-.308-6.175a7.564,7.564,0,0,1-.346.8,6.9,6.9,0,0,1-.443.755,6.427,6.427,0,0,1-.565.669,7.1,7.1,0,0,1-.606.6,6.95,6.95,0,0,1-.674.524,7.071,7.071,0,0,1-.79.325,5.833,5.833,0,0,1-.8.353,5.987,5.987,0,0,1-.849.223,6.4,6.4,0,0,1-.879.03c-.368,0-.46.231-.708-.041-.273-.3.015-.379.015-.783s-.045-.406-.045-.812,0-.408,0-.815-.052-.406-.052-.812.029-.4.029-.811.071-.406.071-.812-.037-.408-.037-.815-.035-.407-.035-.814.029-.408.029-.815-.019-.408-.019-.816.018-.408.018-.816.034-.407.034-.814-.032-.407-.032-.814-.02-.409-.02-.818.024-.409.024-.818.014-.411.014-.822-.315-.536-.041-.841c.246-.274.391.062.759.062a6.266,6.266,0,0,1,.877,0,5.9,5.9,0,0,1,.84.247,5.655,5.655,0,0,1,.828.274,6.611,6.611,0,0,1,.744.41,6.8,6.8,0,0,1,.721.457,7.172,7.172,0,0,1,.6.611,6.231,6.231,0,0,1,.547.684,6.8,6.8,0,0,1,.429.761,7.342,7.342,0,0,1,.438.762,7.058,7.058,0,0,1,.217.885,7.244,7.244,0,0,1,.242.883,18.678,18.678,0,0,1-.009,1.833,7.483,7.483,0,0,1-.157.9A7.046,7.046,0,0,1,470.612,209.014Z" fill="#4b4b4b"/>
    </g>
    <g id="Group_3" data-name="Group 3">
      <path id="Path_3" data-name="Path 3" d="M483.378,195.553c.294.267-.007.434-.007.831s-.058.4-.058.792.052.4.052.793.025.4.025.793.006.4.006.794-.062.4-.062.794-.041.4-.041.8.02.4.02.8.075.4.075.8-.018.4-.018.795-.015.4-.015.795.036.4.036.795-.094.4-.094.8.076.4.076.8-.068.4-.068.8.067.4.067.8-.047.4-.047.8.032.4.032.8-.048.4-.048.79.07.4.07.791-.086.4-.086.793.054.4.054.8-.058.4-.058.8.051.4.051.8-.014.4-.014.795.064.4.064.8-.069.4-.069.8.01.4.01.8.006.4.006.8-.048.4-.048.8.046.4.046.8.026.4.026.8.013.4.013.8-.046.4-.046.8.012.4.012.8-.052.4-.052.805.365.545.07.819c-.318.295-.447-.07-.88-.07s-.436.079-.872.079-.436.013-.873.013-.437-.009-.875-.009-.57.287-.894-.007c-.294-.266.057-.417.057-.813s.015-.4.015-.793-.093-.4-.093-.793,0-.4,0-.793.04-.4.04-.794-.009-.4-.009-.794-.015-.4-.015-.8.023-.4.023-.8.041-.4.041-.8-.086-.4-.086-.8.033-.4.033-.795-.037-.4-.037-.794.032-.4.032-.8.07-.4.07-.8-.031-.4-.031-.8,0-.4,0-.8-.049-.4-.049-.8,0-.4,0-.8.051-.4.051-.79.03-.4.03-.791,0-.4,0-.793-.09-.4-.09-.8.033-.4.033-.8.053-.4.053-.8-.041-.4-.041-.795.05-.4.05-.8-.018-.4-.018-.8-.025-.4-.025-.8.049-.4.049-.8-.086-.4-.086-.8.074-.4.074-.8-.066-.4-.066-.8,0-.4,0-.8.058-.4.058-.8-.049-.4-.049-.8-.015-.4-.015-.805-.313-.575-.018-.849c.318-.295.474,0,.907,0s.436.038.872.038.437-.051.873-.051.457.187.884.09C482.951,195.52,483.054,195.259,483.378,195.553Z" fill="#4b4b4b"/>
    </g>
    <g id="Group_4" data-name="Group 4">
      <path id="Path_4" data-name="Path 4" d="M501.315,214.566c-.335-.235-.591-.108-.643-.514s.27-.31.535-.619c.166-.194.3-.415.451-.62s.319-.4.457-.614.262-.437.385-.662.3-.423.406-.656.167-.485.258-.725.181-.488.257-.736.121-.5.178-.757.068-.512.105-.77.06-.51.079-.77.071-.514.071-.774c0-.282-.024-.56-.045-.838s-.024-.562-.067-.837-.15-.54-.216-.812-.06-.565-.148-.831-.186-.532-.3-.79-.265-.49-.391-.735-.3-.465-.446-.7-.22-.519-.381-.744-.413-.379-.591-.592-.289-.484-.482-.682-.459-.33-.669-.515-.407-.382-.632-.549-.447-.336-.685-.485-.49-.266-.74-.4-.5-.246-.758-.358c-.224-.1-.444-.209-.676-.291s-.475-.118-.713-.183-.454-.214-.7-.262-.493-.025-.739-.057-.486-.047-.734-.062-.488-.011-.736-.011c-.424,0-.424-.046-.847-.046s-.422.075-.845.075-.425-.007-.85-.007-.425,0-.851,0-.426-.028-.853-.028-.508-.283-.821.007c-.29.27,0,.362,0,.759s-.022.4-.022.792-.014.4-.014.793,0,.4,0,.793.023.4.023.794-.018.4-.018.794,0,.4,0,.8v.8c0,.4.033.4.033.8s-.065.4-.065.795.059.4.059.795-.054.4-.054.795.085.4.085.8-.033.4-.033.8-.062.4-.062.8.084.4.084.8-.065.4-.065.8.046.4.046.8.024.4.024.79-.037.4-.037.791.018.4.018.793.032.4.032.8-.1.4-.1.8.02.4.02.8-.014.4-.014.795.031.4.031.8.053.4.053.8-.1.4-.1.8,0,.4,0,.8.093.4.093.8-.041.4-.041.8-.021.4-.021.8-.027.4-.027.8.07.4.07.8-.055.4-.055.8.035.4.035.805-.326.558-.044.846.436-.058.831-.058.4.023.793.023.395-.059.791-.059.4.044.791.044.4-.013.794-.013.4-.012.793-.012.4.054.792.054.395-.028.79-.028.4-.037.795-.037.4.089.8.089.4-.1.8-.1.4.059.8.059a6.888,6.888,0,0,0,.842-.1,6.619,6.619,0,0,0,.851-.063,6.41,6.41,0,0,0,.783-.336c.254-.105.5-.21.737-.336a7.106,7.106,0,0,0,.7-.412,5.771,5.771,0,0,0,.621-.517,5.689,5.689,0,0,0,.536-.562,5.978,5.978,0,0,0,.505-.6,6.521,6.521,0,0,0,.344-.7,5.452,5.452,0,0,0,.3-.725,5.216,5.216,0,0,0,.145-.769,5.57,5.57,0,0,0,.084-.78,5.65,5.65,0,0,0-.077-.918,5.244,5.244,0,0,0-.256-.882,5.309,5.309,0,0,0-.32-.867,6.312,6.312,0,0,0-.548-.737,6.029,6.029,0,0,0-.657-.631A5.777,5.777,0,0,0,501.315,214.566Zm-2.476,6.066a2.556,2.556,0,0,1-1.4.634c-.428,0-.428-.059-.856-.059s-.428.077-.855.077-.43-.1-.86-.1-.43.039-.861.039-.431.056-.863.056-.547.249-.86-.049c-.3-.282.028-.407.028-.817s.018-.412.018-.825,0-.412,0-.825-.091-.414-.091-.828-.285-.567.013-.855.453.046.881.046.428.017.855.017.43-.088.86-.088.43,0,.861,0,.431.076.863.076.432-.026.863-.026a1.94,1.94,0,0,1,.779.174,2.03,2.03,0,0,1,.663.446,2.238,2.238,0,0,1,.512.634,2.058,2.058,0,0,1,.146.808,2.165,2.165,0,0,1-.161.827A2.039,2.039,0,0,1,498.839,220.632Zm.184-11.594a7.527,7.527,0,0,1-.415.773,7,7,0,0,1-.408.778,6.5,6.5,0,0,1-.58.661,7.069,7.069,0,0,1-.63.571,5.6,5.6,0,0,1-1.452.863,5.839,5.839,0,0,1-.8.358,6.128,6.128,0,0,1-.852.21,6.369,6.369,0,0,1-.877.028c-.369,0-.467.248-.716-.024-.272-.3.011-.385.011-.789s-.023-.406-.023-.812.025-.408.025-.815-.061-.406-.061-.812.025-.4.025-.811.052-.406.052-.812-.033-.408-.033-.815,0-.407,0-.814,0-.408,0-.815-.049-.408-.049-.816-.015-.408-.015-.816-.009-.407-.009-.814.1-.407.1-.814-.085-.409-.085-.818.1-.409.1-.818-.055-.411-.055-.822-.306-.545-.031-.851c.246-.274.4.084.77.084a6.074,6.074,0,0,1,.867.046,5.949,5.949,0,0,1,.87.116,5.748,5.748,0,0,1,.784.394,6.777,6.777,0,0,1,.776.346,6.873,6.873,0,0,1,.7.48,7.006,7.006,0,0,1,.635.572,6.432,6.432,0,0,1,.488.733,6.8,6.8,0,0,1,.514.711,7.656,7.656,0,0,1,.3.823,7.123,7.123,0,0,1,.332.845,7.255,7.255,0,0,1,.135.9,7.567,7.567,0,0,1,.044.907,7.8,7.8,0,0,1-.059.909,29.247,29.247,0,0,1-.383,1.78Z" fill="#4b4b4b"/>
    </g>
    <g id="Group_5" data-name="Group 5">
      <path id="Path_5" data-name="Path 5" d="M511.614,199.45c-.292.288-.065.382-.065.792s.015.413.015.825-.03.413-.03.826.053.414.053.828-.316.557-.023.85.436,0,.85,0,.414-.065.827-.065.415.079.831.079.414-.048.828-.048.415,0,.829,0,.413.027.826.027.416.027.832.027.416-.033.832-.033.417,0,.835,0,.553-.324.862-.043c.281.257-.059.411-.059.791s.062.383.062.766-.017.383-.017.767.029.384.029.769.257.526-.024.788c-.3.281-.432-.036-.846-.036s-.414.071-.827.071-.415-.011-.831-.011-.414-.025-.828-.025-.414-.034-.829-.034-.413.034-.826.034-.416.036-.832.036-.416-.078-.832-.078-.417-.029-.835-.029-.558-.262-.858.028.061.429.061.833.015.406.015.812-.11.408-.11.815,0,.406,0,.812.088.4.088.811-.036.406-.036.812.057.408.057.816-.006.407-.006.814-.012.407-.012.814-.014.408-.014.817.038.407.038.815-.065.407-.065.815-.009.406-.009.813.076.409.076.818-.005.409-.005.819-.1.41-.1.821-.231.515.059.805.394.06.8.06.41,0,.82,0,.411-.1.822-.1.411.079.821.079.41.016.821.016.409-.053.819-.053.411.027.823.027h.824c.414,0,.414-.071.827-.071s.548-.255.852.025c.28.258-.071.407-.071.788s.058.383.058.765.039.384.039.767-.033.385-.033.769.224.467-.05.736-.36-.011-.751-.011-.393.085-.786.085-.392-.071-.784-.071-.391.012-.782.012-.392.06-.783.06-.394.014-.788.014-.392-.016-.785-.016-.393-.059-.785-.059l-.788,0c-.394,0-.394.017-.787.017l-.786,0c-.393,0-.393-.022-.785-.022s-.395,0-.789,0-.395-.041-.79-.041-.4.084-.793.084-.52.26-.8-.02.027-.4.027-.8-.041-.4-.041-.793.078-.4.078-.793-.051-.4-.051-.793.03-.4.03-.794-.065-.4-.065-.794.041-.4.041-.8.02-.4.02-.8-.064-.4-.064-.8.07-.4.07-.8.014-.4.014-.795-.074-.4-.074-.794.081-.4.081-.8-.107-.4-.107-.8v-.8c0-.4.085-.4.085-.8s-.006-.4-.006-.8-.015-.4-.015-.8,0-.4,0-.79.019-.4.019-.791.011-.4.011-.793-.009-.4-.009-.8.016-.4.016-.8-.03-.4-.03-.8-.057-.4-.057-.795.058-.4.058-.8-.069-.4-.069-.8.055-.4.055-.8-.022-.4-.022-.8,0-.4,0-.8.059-.4.059-.8-.02-.4-.02-.8-.036-.4-.036-.8.016-.4.016-.8-.029-.4-.029-.8-.028-.4-.028-.805-.249-.535.032-.823.41-.005.8-.005.393-.019.786-.019.391.058.783.058.391-.064.782-.064.392.084.784.084.393-.091.787-.091.393.008.785.008.393.087.786.087.394.006.788.006.393-.058.786-.058.394.005.787.005.392-.052.784-.052.4.025.789.025.4.08.791.08.4.006.792.006.521-.343.807-.068-.073.4-.073.777.04.383.04.765.015.384.015.767-.03.385-.03.769.353.548.072.811c-.3.28-.449-.1-.858-.1s-.41.05-.82.05-.411.035-.822.035-.411-.084-.821-.084-.411.017-.821.017-.409.076-.819.076-.412-.068-.823-.068-.413.013-.825.013-.42.094-.826.013S511.907,199.158,511.614,199.45Z" fill="#4b4b4b"/>
    </g>
  </g>
</svg>
